<svg id="svg" version="1.1" xmlns="http://www.w3.org/2000/svg" xmlns:xlink="http://www.w3.org/1999/xlink" width="400" height="400" viewBox="0, 0, 400,400"><g id="svgg"><path id="path0" d="M61.300 51.891 C 62.125 51.978,63.475 51.978,64.300 51.891 C 65.125 51.805,64.450 51.734,62.800 51.734 C 61.150 51.734,60.475 51.805,61.300 51.891 M56.924 52.779 C 53.567 54.302,47.896 61.200,50.000 61.200 C 50.220 61.200,50.400 60.840,50.400 60.400 C 50.400 59.960,50.580 59.600,50.800 59.600 C 51.020 59.600,51.200 59.417,51.200 59.193 C 51.200 58.544,56.321 53.600,56.993 53.600 C 57.327 53.600,57.600 53.420,57.600 53.200 C 57.600 52.980,58.050 52.800,58.600 52.800 C 59.150 52.800,59.600 52.620,59.600 52.400 C 59.600 51.811,58.808 51.923,56.924 52.779 M66.000 52.400 C 66.000 52.620,66.360 52.800,66.800 52.800 C 67.240 52.800,67.600 52.980,67.600 53.200 C 67.600 53.420,67.960 53.600,68.400 53.600 C 68.840 53.600,69.200 53.780,69.200 54.000 C 69.200 54.220,69.484 54.400,69.831 54.400 C 70.179 54.400,71.176 55.142,72.048 56.050 C 72.920 56.957,73.733 57.600,73.855 57.478 C 74.276 57.058,70.472 53.653,68.660 52.827 C 66.642 51.908,66.000 51.805,66.000 52.400 M75.600 62.576 C 75.600 63.139,75.780 63.600,76.000 63.600 C 76.220 63.600,76.400 63.251,76.400 62.824 C 76.400 62.397,76.220 61.936,76.000 61.800 C 75.773 61.660,75.600 61.996,75.600 62.576 M49.334 65.200 C 49.334 66.850,49.405 67.525,49.491 66.700 C 49.578 65.875,49.578 64.525,49.491 63.700 C 49.405 62.875,49.334 63.550,49.334 65.200 M75.606 67.900 C 75.611 68.757,75.698 68.868,76.000 68.400 C 76.506 67.617,76.506 66.800,76.000 66.800 C 75.780 66.800,75.603 67.295,75.606 67.900 M49.609 68.900 C 49.664 72.044,53.876 76.319,58.919 78.349 C 60.253 78.887,65.321 78.950,66.305 78.441 C 66.687 78.244,67.450 77.891,68.000 77.657 C 68.831 77.304,68.695 77.274,67.200 77.477 C 66.210 77.612,65.340 77.874,65.267 78.061 C 65.089 78.514,60.400 78.499,60.400 78.045 C 60.400 77.850,59.590 77.569,58.600 77.421 C 57.610 77.272,56.800 76.982,56.800 76.775 C 56.800 76.569,56.526 76.400,56.191 76.400 C 55.399 76.400,51.200 72.201,51.200 71.409 C 51.200 71.074,51.020 70.800,50.800 70.800 C 50.580 70.800,50.400 70.260,50.400 69.600 C 50.400 68.940,50.220 68.400,50.000 68.400 C 49.780 68.400,49.604 68.625,49.609 68.900 M73.671 72.229 C 73.380 72.558,73.209 73.026,73.289 73.268 C 73.370 73.511,73.747 73.235,74.127 72.655 C 74.866 71.528,74.550 71.234,73.671 72.229 M69.660 76.242 C 68.845 77.163,69.282 77.245,70.406 76.382 C 71.056 75.882,71.192 75.620,70.800 75.624 C 70.470 75.628,69.957 75.905,69.660 76.242 M134.814 167.281 C 131.822 168.429,128.796 171.496,127.662 174.527 L 126.800 176.830 126.800 230.355 C 126.800 270.472,126.918 284.221,127.272 285.240 C 128.788 289.602,132.229 292.755,136.616 293.802 C 140.113 294.637,259.816 294.654,263.305 293.821 C 267.790 292.749,270.879 290.099,272.443 285.984 C 273.520 283.148,273.635 178.410,272.564 174.805 C 271.694 171.874,268.324 168.478,265.082 167.265 L 262.770 166.400 199.885 166.421 C 137.005 166.442,137.000 166.442,134.814 167.281 M206.800 183.258 C 226.899 187.905,236.437 211.673,225.126 228.928 L 223.600 231.257 223.586 244.328 C 223.570 258.938,223.414 260.176,220.957 265.195 C 215.660 276.012,200.891 281.236,190.400 276.003 C 186.769 274.191,186.022 273.660,183.370 271.008 C 177.308 264.946,176.400 261.413,176.400 243.878 L 176.400 231.156 174.872 228.878 C 165.524 214.940,170.381 194.760,185.061 186.551 C 191.503 182.948,199.936 181.671,206.800 183.258 " stroke="none" fill="#f8807b" fill-rule="evenodd"></path><path id="path1" d="M59.600 52.400 C 59.600 52.620,59.150 52.800,58.600 52.800 C 58.050 52.800,57.600 52.980,57.600 53.200 C 57.600 53.420,57.327 53.600,56.993 53.600 C 56.321 53.600,51.200 58.544,51.200 59.193 C 51.200 59.417,51.020 59.600,50.800 59.600 C 50.580 59.600,50.400 59.960,50.400 60.400 C 50.400 60.840,50.220 61.200,50.000 61.200 C 49.763 61.200,49.600 62.667,49.600 64.800 C 49.600 66.933,49.763 68.400,50.000 68.400 C 50.220 68.400,50.400 68.940,50.400 69.600 C 50.400 70.260,50.580 70.800,50.800 70.800 C 51.020 70.800,51.200 71.074,51.200 71.409 C 51.200 72.201,55.399 76.400,56.191 76.400 C 56.526 76.400,56.800 76.569,56.800 76.775 C 56.800 76.982,57.610 77.272,58.600 77.421 C 59.590 77.569,60.400 77.850,60.400 78.045 C 60.400 78.240,61.480 78.400,62.800 78.400 C 64.120 78.400,65.200 78.243,65.200 78.052 C 65.200 77.860,66.061 77.589,67.113 77.449 C 68.356 77.284,69.228 76.916,69.602 76.398 C 69.918 75.959,70.415 75.600,70.706 75.600 C 70.998 75.600,71.678 75.158,72.218 74.618 C 72.758 74.078,73.200 73.398,73.200 73.106 C 73.200 72.815,73.560 72.317,74.000 72.000 C 74.440 71.683,74.800 71.103,74.800 70.712 C 74.800 70.320,74.980 70.000,75.200 70.000 C 75.420 70.000,75.600 69.280,75.600 68.400 C 75.600 67.520,75.780 66.800,76.000 66.800 C 76.220 66.800,76.400 66.080,76.400 65.200 C 76.400 64.320,76.220 63.600,76.000 63.600 C 75.780 63.600,75.600 62.880,75.600 62.000 C 75.600 61.120,75.420 60.400,75.200 60.400 C 74.980 60.400,74.800 60.040,74.800 59.600 C 74.800 59.160,74.620 58.800,74.400 58.800 C 74.180 58.800,74.000 58.615,74.000 58.389 C 74.000 57.743,70.489 54.400,69.811 54.400 C 69.475 54.400,69.200 54.220,69.200 54.000 C 69.200 53.780,68.840 53.600,68.400 53.600 C 67.960 53.600,67.600 53.420,67.600 53.200 C 67.600 52.980,67.240 52.800,66.800 52.800 C 66.360 52.800,66.000 52.620,66.000 52.400 C 66.000 52.167,64.667 52.000,62.800 52.000 C 60.933 52.000,59.600 52.167,59.600 52.400 M196.400 81.065 C 190.020 81.689,184.582 82.886,180.000 84.674 C 176.502 86.039,173.030 87.699,172.867 88.085 C 172.793 88.258,172.560 88.400,172.349 88.400 C 172.137 88.400,170.601 89.319,168.936 90.443 C 151.793 102.011,143.641 119.172,144.067 142.800 L 144.200 150.200 152.100 150.308 L 160.000 150.417 160.000 141.439 C 160.000 136.501,160.194 131.502,160.432 130.331 C 161.064 127.213,161.629 125.093,162.039 124.305 C 162.238 123.923,162.400 123.381,162.400 123.099 C 162.400 122.818,162.968 121.421,163.662 119.994 C 168.936 109.152,179.080 100.621,189.594 98.188 C 195.464 96.830,196.357 96.731,201.000 96.928 C 217.900 97.644,233.496 108.791,237.758 123.200 C 238.277 124.954,238.841 126.953,239.281 128.600 C 239.516 129.480,239.819 134.700,239.954 140.200 L 240.200 150.200 248.000 150.200 L 255.800 150.200 255.931 142.800 C 256.238 125.350,252.669 113.438,243.666 101.875 C 241.479 99.065,234.641 92.697,232.300 91.289 C 231.695 90.925,231.200 90.486,231.200 90.314 C 231.200 90.141,231.007 90.000,230.772 90.000 C 230.537 90.000,229.592 89.494,228.672 88.875 C 220.920 83.658,206.232 80.103,196.400 81.065 M335.195 321.606 C 327.980 322.806,321.262 332.313,323.961 337.505 C 324.160 337.887,324.561 339.003,324.853 339.983 C 326.836 346.652,336.361 350.224,343.272 346.892 C 356.915 340.312,350.146 319.122,335.195 321.606 " stroke="none" fill="#d6ebee" fill-rule="evenodd"></path><path id="path2" d="M61.700 51.487 C 62.305 51.578,63.295 51.578,63.900 51.487 C 64.505 51.395,64.010 51.320,62.800 51.320 C 61.590 51.320,61.095 51.395,61.700 51.487 M58.000 52.018 C 57.562 52.315,57.724 52.352,58.600 52.156 C 60.071 51.827,60.390 51.598,59.367 51.606 C 58.945 51.609,58.330 51.795,58.000 52.018 M70.000 53.306 C 70.000 53.394,70.765 54.074,71.700 54.817 C 72.635 55.560,73.146 55.852,72.836 55.465 C 72.251 54.737,70.000 53.023,70.000 53.306 M52.778 55.500 L 51.400 57.000 52.900 55.622 C 54.296 54.338,54.584 54.000,54.278 54.000 C 54.212 54.000,53.537 54.675,52.778 55.500 M48.928 65.200 C 48.928 66.630,49.001 67.215,49.089 66.500 C 49.178 65.785,49.178 64.615,49.089 63.900 C 49.001 63.185,48.928 63.770,48.928 65.200 M49.206 68.633 C 49.209 69.055,49.395 69.670,49.618 70.000 C 49.915 70.438,49.952 70.276,49.756 69.400 C 49.427 67.929,49.198 67.610,49.206 68.633 M73.599 73.300 C 73.010 74.104,72.913 74.384,73.345 74.033 C 74.001 73.500,74.993 72.000,74.689 72.000 C 74.613 72.000,74.122 72.585,73.599 73.300 M51.496 73.400 C 51.950 74.060,52.829 75.050,53.450 75.600 C 54.199 76.264,54.059 75.996,53.032 74.800 C 50.936 72.357,50.515 71.974,51.496 73.400 M70.800 76.060 C 70.030 76.735,69.762 77.105,70.204 76.881 C 70.935 76.511,72.747 74.778,72.362 74.816 C 72.273 74.825,71.570 75.385,70.800 76.060 M62.100 79.076 C 62.485 79.176,63.115 79.176,63.500 79.076 C 63.885 78.975,63.570 78.893,62.800 78.893 C 62.030 78.893,61.715 78.975,62.100 79.076 M195.400 80.763 C 194.300 80.894,196.370 81.001,200.000 81.001 C 204.031 81.000,205.744 80.899,204.400 80.740 C 201.767 80.428,198.142 80.438,195.400 80.763 M188.600 81.677 C 185.505 82.439,180.319 84.053,180.473 84.206 C 180.558 84.291,182.061 83.924,183.814 83.390 C 185.566 82.856,188.440 82.161,190.200 81.845 C 192.411 81.449,192.906 81.273,191.800 81.277 C 190.920 81.280,189.480 81.460,188.600 81.677 M207.800 81.474 C 209.820 81.733,214.113 82.733,216.808 83.572 C 218.215 84.009,219.436 84.298,219.521 84.212 C 219.982 83.751,209.797 81.170,207.875 81.260 L 206.600 81.320 207.800 81.474 M177.800 85.229 C 176.920 85.652,176.650 85.886,177.200 85.749 C 178.333 85.467,180.412 84.425,179.800 84.446 C 179.580 84.453,178.680 84.806,177.800 85.229 M227.200 87.714 C 227.200 87.955,230.306 90.000,230.671 90.000 C 230.830 90.000,230.789 89.849,230.580 89.664 C 229.952 89.108,227.200 87.521,227.200 87.714 M167.996 90.651 C 164.682 92.847,155.266 101.800,155.756 102.289 C 155.884 102.417,156.381 102.000,156.861 101.361 C 159.193 98.256,164.686 93.280,168.804 90.542 C 171.249 88.916,171.898 88.400,171.496 88.400 C 171.439 88.400,169.864 89.413,167.996 90.651 M231.200 90.289 C 231.200 90.475,231.695 90.925,232.300 91.289 C 234.272 92.475,235.742 93.742,239.400 97.409 C 243.522 101.542,243.594 101.629,246.412 105.854 C 248.873 109.545,249.746 110.550,248.277 108.000 C 244.775 101.920,231.200 87.842,231.200 90.289 M194.315 97.128 C 193.938 97.278,196.496 97.400,200.000 97.400 C 203.504 97.400,206.062 97.278,205.685 97.128 C 205.308 96.979,202.750 96.856,200.000 96.856 C 197.250 96.856,194.692 96.979,194.315 97.128 M190.200 98.000 C 189.181 98.438,190.232 98.438,191.600 98.000 C 192.404 97.743,192.443 97.677,191.800 97.668 C 191.360 97.662,190.640 97.811,190.200 98.000 M208.400 98.000 C 209.942 98.494,210.764 98.494,210.000 98.000 C 209.670 97.787,208.950 97.627,208.400 97.646 L 207.400 97.680 208.400 98.000 M187.200 98.800 C 186.667 99.145,186.667 99.188,187.200 99.188 C 187.530 99.188,188.070 99.013,188.400 98.800 C 188.933 98.455,188.933 98.412,188.400 98.412 C 188.070 98.412,187.530 98.587,187.200 98.800 M211.600 98.800 C 211.930 99.013,212.470 99.188,212.800 99.188 C 213.333 99.188,213.333 99.145,212.800 98.800 C 212.470 98.587,211.930 98.412,211.600 98.412 C 211.067 98.412,211.067 98.455,211.600 98.800 M181.400 101.316 C 176.454 103.991,171.686 107.972,168.642 111.967 C 165.283 116.376,165.725 116.246,169.309 111.771 C 172.770 107.450,176.695 104.225,181.799 101.511 C 183.340 100.691,184.420 100.020,184.200 100.020 C 183.980 100.019,182.720 100.602,181.400 101.316 M218.200 101.515 C 225.826 105.582,231.218 110.974,235.285 118.600 C 236.107 120.140,236.784 121.246,236.789 121.058 C 236.919 116.855,225.795 104.941,218.113 101.055 C 214.945 99.453,215.013 99.815,218.200 101.515 M154.699 103.500 C 153.760 104.551,149.947 110.880,150.137 111.071 C 150.228 111.162,150.804 110.373,151.416 109.318 C 152.028 108.263,153.227 106.365,154.080 105.100 C 155.634 102.794,155.867 102.192,154.699 103.500 M149.072 113.019 C 148.132 114.989,148.264 115.324,149.247 113.462 C 149.693 112.616,149.987 111.854,149.901 111.767 C 149.814 111.681,149.441 112.244,149.072 113.019 M250.817 113.256 C 250.808 113.397,251.156 114.297,251.591 115.256 C 252.026 116.215,252.379 116.730,252.374 116.400 C 252.367 115.813,250.850 112.751,250.817 113.256 M147.045 118.081 C 145.594 122.116,144.497 126.875,144.252 130.200 L 144.046 133.000 144.434 130.600 C 145.217 125.759,145.695 123.712,147.003 119.603 C 148.552 114.737,148.577 113.822,147.045 118.081 M164.968 117.418 C 164.382 118.418,163.970 119.304,164.053 119.386 C 164.135 119.468,164.697 118.650,165.301 117.568 C 166.683 115.093,166.405 114.967,164.968 117.418 M252.607 118.000 C 253.288 120.219,253.945 121.766,253.966 121.200 C 253.994 120.442,253.054 117.716,252.624 117.307 C 252.446 117.138,252.439 117.450,252.607 118.000 M254.006 122.233 C 254.009 122.435,254.260 123.680,254.563 125.000 C 255.612 129.570,256.061 135.413,255.931 142.800 L 255.800 150.200 247.900 150.200 C 243.555 150.200,240.000 150.339,240.000 150.508 C 240.000 150.678,243.645 150.768,248.100 150.708 L 256.200 150.600 256.330 143.000 C 256.458 135.544,256.050 130.067,254.977 124.860 C 254.515 122.620,253.989 121.197,254.006 122.233 M237.612 124.000 C 237.612 124.330,237.787 124.870,238.000 125.200 C 238.345 125.733,238.388 125.733,238.388 125.200 C 238.388 124.870,238.213 124.330,238.000 124.000 C 237.655 123.467,237.612 123.467,237.612 124.000 M161.867 124.267 C 161.720 124.413,161.611 124.908,161.625 125.367 C 161.649 126.133,161.682 126.123,162.034 125.242 C 162.426 124.263,162.344 123.789,161.867 124.267 M161.049 127.015 C 160.912 127.373,160.816 128.056,160.836 128.533 C 160.862 129.147,160.985 129.008,161.259 128.056 C 161.657 126.672,161.494 125.858,161.049 127.015 M238.434 126.800 C 238.446 127.130,238.611 127.760,238.800 128.200 L 239.144 129.000 239.166 128.200 C 239.178 127.760,239.013 127.130,238.800 126.800 C 238.455 126.267,238.415 126.267,238.434 126.800 M239.505 133.200 C 239.618 135.290,239.775 137.075,239.855 137.167 C 240.137 137.490,239.916 131.386,239.610 130.400 C 239.439 129.850,239.392 131.110,239.505 133.200 M160.253 131.236 C 160.114 131.931,160.036 136.483,160.080 141.350 L 160.161 150.200 160.380 140.200 C 160.501 134.700,160.579 130.149,160.553 130.086 C 160.527 130.023,160.392 130.541,160.253 131.236 M143.688 141.267 C 143.574 151.991,142.523 150.817,152.143 150.713 L 160.200 150.626 152.200 150.413 L 144.200 150.200 143.988 141.600 L 143.776 133.000 143.688 141.267 M195.814 199.247 C 186.098 202.588,182.951 213.414,189.329 221.558 C 192.572 225.699,192.400 224.605,192.400 241.131 C 192.400 257.731,192.396 257.708,195.241 260.142 C 199.154 263.492,204.880 262.085,207.007 257.251 C 207.496 256.140,207.600 253.339,207.600 241.338 C 207.600 225.063,207.486 225.816,210.562 221.800 C 219.362 210.313,209.131 194.668,195.814 199.247 M334.200 321.148 C 328.038 322.777,323.698 327.942,323.419 333.979 C 323.352 335.421,323.366 335.970,323.450 335.200 C 324.432 326.174,331.543 320.209,339.578 321.673 C 355.764 324.621,353.614 348.253,337.169 348.152 C 331.669 348.118,326.209 344.499,324.844 339.983 C 323.939 336.988,323.899 336.906,323.709 337.700 C 323.476 338.674,325.226 342.346,326.751 344.084 C 337.627 356.470,357.140 343.172,349.766 328.400 C 347.135 323.129,339.740 319.684,334.200 321.148 " stroke="none" fill="#6b93ab" fill-rule="evenodd"></path><path id="path3" d="M178.700 0.274 C 176.555 0.359,174.800 0.602,174.800 0.814 C 174.800 1.027,173.540 1.200,172.000 1.200 C 170.400 1.200,169.200 1.371,169.200 1.600 C 169.200 1.822,168.133 2.000,166.800 2.000 C 165.467 2.000,164.400 2.178,164.400 2.400 C 164.400 2.620,163.410 2.800,162.200 2.800 C 160.990 2.800,160.000 2.980,160.000 3.200 C 160.000 3.420,159.100 3.600,158.000 3.600 C 156.900 3.600,156.000 3.780,156.000 4.000 C 156.000 4.220,155.280 4.400,154.400 4.400 C 153.520 4.400,152.800 4.580,152.800 4.800 C 152.800 5.020,152.080 5.200,151.200 5.200 C 150.320 5.200,149.600 5.380,149.600 5.600 C 149.600 5.820,148.970 6.000,148.200 6.000 C 147.430 6.000,146.800 6.180,146.800 6.400 C 146.800 6.620,146.170 6.800,145.400 6.800 C 144.630 6.800,144.000 6.980,144.000 7.200 C 144.000 7.420,143.370 7.600,142.600 7.600 C 141.830 7.600,141.200 7.780,141.200 8.000 C 141.200 8.220,140.771 8.400,140.246 8.400 C 139.294 8.400,135.538 9.409,134.400 9.970 C 134.070 10.132,132.945 10.515,131.900 10.820 C 130.855 11.125,130.000 11.515,130.000 11.687 C 130.000 11.859,129.638 12.000,129.195 12.000 C 128.752 12.000,128.032 12.180,127.595 12.400 C 127.158 12.620,126.442 12.980,126.005 13.200 C 125.568 13.420,124.938 13.600,124.605 13.600 C 124.272 13.600,124.000 13.780,124.000 14.000 C 124.000 14.220,123.722 14.400,123.382 14.400 C 122.582 14.400,120.800 16.182,120.800 16.982 C 120.800 17.322,120.620 17.600,120.400 17.600 C 120.180 17.600,120.000 17.960,120.000 18.400 C 120.000 18.840,119.820 19.200,119.600 19.200 C 119.374 19.200,119.200 20.333,119.200 21.800 C 119.200 23.267,119.374 24.400,119.600 24.400 C 119.820 24.400,120.000 24.760,120.000 25.200 C 120.000 25.640,120.180 26.000,120.400 26.000 C 120.620 26.000,120.800 26.294,120.800 26.653 C 120.800 27.384,122.725 29.199,123.500 29.200 C 123.775 29.200,124.000 29.380,124.000 29.600 C 124.000 29.839,125.533 30.000,127.800 30.000 C 130.067 30.000,131.600 29.839,131.600 29.600 C 131.600 29.380,132.140 29.200,132.800 29.200 C 133.460 29.200,134.000 29.020,134.000 28.800 C 134.000 28.580,134.450 28.400,135.000 28.400 C 135.550 28.400,136.000 28.220,136.000 28.000 C 136.000 27.780,136.450 27.600,137.000 27.600 C 137.550 27.600,138.000 27.420,138.000 27.200 C 138.000 26.980,138.439 26.800,138.976 26.800 C 139.513 26.800,140.064 26.620,140.200 26.400 C 140.336 26.180,140.887 26.000,141.424 26.000 C 141.961 26.000,142.400 25.841,142.400 25.646 C 142.400 25.451,143.387 25.169,144.594 25.018 C 145.800 24.867,146.891 24.577,147.017 24.372 C 147.144 24.167,147.629 24.000,148.095 24.000 C 148.996 24.000,151.339 23.335,152.495 22.751 C 152.877 22.558,153.721 22.400,154.371 22.400 C 155.021 22.400,155.664 22.220,155.800 22.000 C 155.936 21.780,156.667 21.600,157.424 21.600 C 158.181 21.600,158.800 21.420,158.800 21.200 C 158.800 20.980,159.700 20.800,160.800 20.800 C 161.900 20.800,162.800 20.620,162.800 20.400 C 162.800 20.180,163.599 20.000,164.576 20.000 C 165.553 20.000,166.464 19.820,166.600 19.600 C 166.736 19.380,167.816 19.200,169.000 19.200 C 170.184 19.200,171.264 19.020,171.400 18.800 C 171.536 18.580,172.706 18.400,174.000 18.400 C 175.294 18.400,176.464 18.220,176.600 18.000 C 176.736 17.780,178.277 17.600,180.024 17.600 C 181.875 17.600,183.200 17.433,183.200 17.200 C 183.200 16.946,186.189 16.800,191.367 16.800 C 197.536 16.800,199.578 16.678,199.717 16.300 C 199.863 15.900,200.006 15.900,200.430 16.300 C 200.816 16.664,203.037 16.800,208.600 16.800 C 212.802 16.800,216.411 16.967,216.620 17.171 C 216.829 17.375,218.440 17.642,220.200 17.764 C 227.300 18.257,229.200 18.482,229.200 18.833 C 229.200 19.035,230.089 19.200,231.176 19.200 C 232.263 19.200,233.264 19.380,233.400 19.600 C 233.536 19.820,234.436 20.000,235.400 20.000 C 236.364 20.000,237.264 20.180,237.400 20.400 C 237.536 20.620,238.447 20.800,239.424 20.800 C 240.401 20.800,241.200 20.980,241.200 21.200 C 241.200 21.420,241.819 21.600,242.576 21.600 C 243.333 21.600,244.064 21.780,244.200 22.000 C 244.336 22.220,245.056 22.400,245.800 22.400 C 246.544 22.400,247.264 22.580,247.400 22.800 C 247.536 23.020,248.166 23.200,248.800 23.200 C 249.434 23.200,250.064 23.380,250.200 23.600 C 250.336 23.820,250.966 24.000,251.600 24.000 C 252.234 24.000,252.856 24.167,252.983 24.372 C 253.109 24.577,254.200 24.867,255.406 25.018 C 256.613 25.169,257.600 25.451,257.600 25.646 C 257.600 25.841,258.039 26.000,258.576 26.000 C 259.113 26.000,259.664 26.180,259.800 26.400 C 259.936 26.620,260.487 26.800,261.024 26.800 C 261.561 26.800,262.000 26.980,262.000 27.200 C 262.000 27.420,262.540 27.600,263.200 27.600 C 263.860 27.600,264.400 27.780,264.400 28.000 C 264.400 28.220,264.760 28.400,265.200 28.400 C 265.640 28.400,266.000 28.580,266.000 28.800 C 266.000 29.020,266.540 29.200,267.200 29.200 C 267.860 29.200,268.400 29.380,268.400 29.600 C 268.400 29.820,268.760 30.000,269.200 30.000 C 269.640 30.000,270.000 30.180,270.000 30.400 C 270.000 30.620,270.540 30.800,271.200 30.800 C 271.860 30.800,272.400 30.980,272.400 31.200 C 272.400 31.420,272.760 31.600,273.200 31.600 C 273.640 31.600,274.000 31.780,274.000 32.000 C 274.000 32.220,274.360 32.400,274.800 32.400 C 275.240 32.400,275.600 32.580,275.600 32.800 C 275.600 33.020,275.960 33.200,276.400 33.200 C 276.840 33.200,277.200 33.380,277.200 33.600 C 277.200 33.820,277.560 34.000,278.000 34.000 C 278.440 34.000,278.800 34.180,278.800 34.400 C 278.800 34.620,279.056 34.800,279.368 34.800 C 279.680 34.800,281.075 35.435,282.468 36.211 C 283.861 36.988,285.675 37.930,286.500 38.306 C 287.325 38.681,288.000 39.126,288.000 39.294 C 288.000 39.462,288.360 39.600,288.800 39.600 C 289.240 39.600,289.600 39.780,289.600 40.000 C 289.600 40.220,289.960 40.400,290.400 40.400 C 290.840 40.400,291.200 40.577,291.200 40.792 C 291.200 41.008,291.650 41.298,292.200 41.436 C 292.750 41.574,293.200 41.847,293.200 42.043 C 293.200 42.240,293.478 42.400,293.817 42.400 C 294.156 42.400,294.820 42.760,295.292 43.200 C 295.764 43.640,296.387 44.000,296.675 44.000 C 296.964 44.000,297.200 44.180,297.200 44.400 C 297.200 44.620,297.436 44.800,297.725 44.800 C 298.013 44.800,298.636 45.160,299.108 45.600 C 299.580 46.040,300.204 46.400,300.495 46.400 C 300.786 46.400,301.283 46.760,301.600 47.200 C 301.917 47.640,302.373 48.000,302.613 48.000 C 302.853 48.000,303.399 48.315,303.827 48.700 C 306.175 50.814,313.600 52.409,313.600 50.800 C 313.600 50.580,313.960 50.400,314.400 50.400 C 314.840 50.400,315.200 50.220,315.200 50.000 C 315.200 49.780,315.483 49.600,315.829 49.600 C 316.637 49.600,317.600 48.637,317.600 47.829 C 317.600 47.483,317.780 47.200,318.000 47.200 C 318.220 47.200,318.400 46.840,318.400 46.400 C 318.400 45.960,318.580 45.600,318.800 45.600 C 319.025 45.600,319.200 44.475,319.200 43.024 C 319.200 41.607,319.020 40.336,318.800 40.200 C 318.580 40.064,318.400 39.599,318.400 39.166 C 318.400 38.292,315.120 34.800,314.299 34.800 C 314.012 34.800,313.517 34.440,313.200 34.000 C 312.883 33.560,312.343 33.200,312.000 33.200 C 311.657 33.200,311.117 32.840,310.800 32.400 C 310.483 31.960,309.943 31.600,309.600 31.600 C 309.257 31.600,308.717 31.240,308.400 30.800 C 308.083 30.360,307.671 30.000,307.484 30.000 C 307.297 30.000,306.359 29.460,305.400 28.800 C 304.441 28.140,303.478 27.600,303.261 27.600 C 303.044 27.600,302.807 27.443,302.733 27.251 C 302.565 26.809,298.604 24.800,297.902 24.800 C 297.613 24.800,297.117 24.440,296.800 24.000 C 296.483 23.560,295.903 23.200,295.512 23.200 C 295.120 23.200,294.800 23.020,294.800 22.800 C 294.800 22.580,294.440 22.400,294.000 22.400 C 293.560 22.400,293.200 22.220,293.200 22.000 C 293.200 21.780,292.840 21.600,292.400 21.600 C 291.960 21.600,291.600 21.454,291.600 21.275 C 291.600 21.096,290.970 20.702,290.200 20.400 C 289.430 20.098,288.800 19.704,288.800 19.525 C 288.800 19.346,288.547 19.200,288.238 19.200 C 287.753 19.200,286.480 18.648,283.505 17.150 C 283.123 16.957,282.538 16.800,282.205 16.800 C 281.872 16.800,281.600 16.620,281.600 16.400 C 281.600 16.180,281.240 16.000,280.800 16.000 C 280.360 16.000,280.000 15.820,280.000 15.600 C 280.000 15.380,279.651 15.200,279.224 15.200 C 278.797 15.200,278.336 15.020,278.200 14.800 C 278.064 14.580,277.513 14.400,276.976 14.400 C 276.439 14.400,276.000 14.220,276.000 14.000 C 276.000 13.780,275.640 13.600,275.200 13.600 C 274.760 13.600,274.400 13.420,274.400 13.200 C 274.400 12.980,274.038 12.800,273.595 12.800 C 273.152 12.800,272.477 12.641,272.095 12.447 C 271.713 12.252,270.860 11.871,270.200 11.600 C 269.540 11.329,268.687 10.948,268.305 10.753 C 267.923 10.559,267.336 10.400,267.000 10.400 C 266.664 10.400,266.077 10.237,265.695 10.037 C 264.553 9.440,260.778 8.400,259.754 8.400 C 259.229 8.400,258.800 8.220,258.800 8.000 C 258.800 7.780,258.170 7.600,257.400 7.600 C 256.630 7.600,256.000 7.420,256.000 7.200 C 256.000 6.980,255.460 6.800,254.800 6.800 C 254.140 6.800,253.600 6.620,253.600 6.400 C 253.600 6.180,252.880 6.000,252.000 6.000 C 251.120 6.000,250.400 5.820,250.400 5.600 C 250.400 5.380,249.680 5.200,248.800 5.200 C 247.920 5.200,247.200 5.020,247.200 4.800 C 247.200 4.580,246.491 4.400,245.624 4.400 C 244.757 4.400,243.936 4.220,243.800 4.000 C 243.664 3.780,242.753 3.600,241.776 3.600 C 240.799 3.600,240.000 3.420,240.000 3.200 C 240.000 2.980,239.111 2.800,238.024 2.800 C 236.937 2.800,235.936 2.620,235.800 2.400 C 235.664 2.180,234.674 2.000,233.600 2.000 C 232.526 2.000,231.536 1.820,231.400 1.600 C 231.264 1.380,229.828 1.200,228.210 1.200 C 226.259 1.200,225.212 1.036,225.105 0.715 C 224.945 0.234,188.451 -0.113,178.700 0.274 M56.800 35.200 C 56.800 35.420,56.080 35.600,55.200 35.600 C 54.320 35.600,53.600 35.780,53.600 36.000 C 53.600 36.220,53.060 36.400,52.400 36.400 C 51.740 36.400,51.200 36.580,51.200 36.800 C 51.200 37.020,50.840 37.200,50.400 37.200 C 49.960 37.200,49.600 37.380,49.600 37.600 C 49.600 37.820,49.240 38.000,48.800 38.000 C 48.360 38.000,48.000 38.180,48.000 38.400 C 48.000 38.620,47.640 38.800,47.200 38.800 C 46.760 38.800,46.400 38.980,46.400 39.200 C 46.400 39.420,46.130 39.600,45.800 39.600 C 45.470 39.600,45.200 39.780,45.200 40.000 C 45.200 40.220,44.990 40.400,44.733 40.400 C 44.067 40.400,37.200 47.533,37.200 48.225 C 37.200 48.541,37.020 48.800,36.800 48.800 C 36.580 48.800,36.400 49.160,36.400 49.600 C 36.400 50.040,36.220 50.400,36.000 50.400 C 35.780 50.400,35.600 50.760,35.600 51.200 C 35.600 51.640,35.420 52.000,35.200 52.000 C 34.980 52.000,34.800 52.360,34.800 52.800 C 34.800 53.240,34.620 53.600,34.400 53.600 C 34.180 53.600,34.000 54.140,34.000 54.800 C 34.000 55.460,33.820 56.000,33.600 56.000 C 33.380 56.000,33.200 56.619,33.200 57.376 C 33.200 58.133,33.020 58.864,32.800 59.000 C 32.562 59.147,32.400 61.663,32.400 65.200 C 32.400 68.737,32.562 71.253,32.800 71.400 C 33.020 71.536,33.200 72.267,33.200 73.024 C 33.200 73.781,33.380 74.400,33.600 74.400 C 33.820 74.400,34.000 74.940,34.000 75.600 C 34.000 76.260,34.180 76.800,34.400 76.800 C 34.620 76.800,34.800 77.160,34.800 77.600 C 34.800 78.040,34.980 78.400,35.200 78.400 C 35.420 78.400,35.600 78.760,35.600 79.200 C 35.600 79.640,35.780 80.000,36.000 80.000 C 36.220 80.000,36.400 80.345,36.400 80.767 C 36.400 81.188,36.605 81.602,36.854 81.685 C 37.383 81.861,36.633 83.389,35.500 84.443 C 35.115 84.801,34.800 85.348,34.800 85.659 C 34.800 85.969,34.440 86.483,34.000 86.800 C 33.560 87.117,33.200 87.657,33.200 88.000 C 33.200 88.343,32.840 88.883,32.400 89.200 C 31.960 89.517,31.600 90.057,31.600 90.400 C 31.600 90.743,31.240 91.283,30.800 91.600 C 30.360 91.917,30.000 92.329,30.000 92.516 C 30.000 92.703,29.460 93.641,28.800 94.600 C 28.140 95.559,27.600 96.522,27.600 96.739 C 27.600 96.956,27.465 97.193,27.300 97.267 C 26.895 97.447,24.800 101.389,24.800 101.971 C 24.800 102.225,24.440 102.820,24.000 103.292 C 23.560 103.764,23.200 104.387,23.200 104.675 C 23.200 104.964,23.020 105.200,22.800 105.200 C 22.580 105.200,22.400 105.560,22.400 106.000 C 22.400 106.440,22.220 106.800,22.000 106.800 C 21.780 106.800,21.600 107.160,21.600 107.600 C 21.600 108.040,21.454 108.400,21.275 108.400 C 21.096 108.400,20.702 109.030,20.400 109.800 C 20.098 110.570,19.704 111.200,19.525 111.200 C 19.346 111.200,19.200 111.560,19.200 112.000 C 19.200 112.440,19.020 112.800,18.800 112.800 C 18.580 112.800,18.400 113.160,18.400 113.600 C 18.400 114.040,18.220 114.400,18.000 114.400 C 17.780 114.400,17.600 114.749,17.600 115.176 C 17.600 115.603,17.420 116.064,17.200 116.200 C 16.980 116.336,16.800 116.887,16.800 117.424 C 16.800 117.961,16.620 118.400,16.400 118.400 C 16.180 118.400,16.000 118.760,16.000 119.200 C 16.000 119.640,15.820 120.000,15.600 120.000 C 15.380 120.000,15.200 120.360,15.200 120.800 C 15.200 121.240,15.020 121.600,14.800 121.600 C 14.580 121.600,14.400 122.140,14.400 122.800 C 14.400 123.460,14.220 124.000,14.000 124.000 C 13.780 124.000,13.600 124.360,13.600 124.800 C 13.600 125.240,13.420 125.600,13.200 125.600 C 12.980 125.600,12.800 126.050,12.800 126.600 C 12.800 127.150,12.620 127.600,12.400 127.600 C 12.180 127.600,12.000 127.949,12.000 128.376 C 12.000 128.803,11.820 129.264,11.600 129.400 C 11.380 129.536,11.200 130.076,11.200 130.600 C 11.200 131.124,11.020 131.664,10.800 131.800 C 10.580 131.936,10.400 132.476,10.400 133.000 C 10.400 133.524,10.220 134.064,10.000 134.200 C 9.780 134.336,9.600 134.876,9.600 135.400 C 9.600 135.924,9.433 136.456,9.228 136.583 C 9.023 136.709,8.733 137.800,8.582 139.006 C 8.431 140.213,8.149 141.200,7.954 141.200 C 7.759 141.200,7.600 141.740,7.600 142.400 C 7.600 143.060,7.420 143.600,7.200 143.600 C 6.980 143.600,6.800 144.230,6.800 145.000 C 6.800 145.770,6.620 146.400,6.400 146.400 C 6.180 146.400,6.000 147.120,6.000 148.000 C 6.000 148.880,5.820 149.600,5.600 149.600 C 5.380 149.600,5.200 150.320,5.200 151.200 C 5.200 152.080,5.020 152.800,4.800 152.800 C 4.580 152.800,4.400 153.520,4.400 154.400 C 4.400 155.280,4.220 156.000,4.000 156.000 C 3.780 156.000,3.600 156.799,3.600 157.776 C 3.600 158.753,3.420 159.664,3.200 159.800 C 2.980 159.936,2.800 160.926,2.800 162.000 C 2.800 163.074,2.620 164.064,2.400 164.200 C 2.180 164.336,2.000 165.326,2.000 166.400 C 2.000 167.474,1.820 168.464,1.600 168.600 C 1.380 168.736,1.200 170.172,1.200 171.790 C 1.200 173.789,1.040 174.787,0.700 174.900 C -0.031 175.144,-0.031 224.529,0.700 225.260 C 1.001 225.561,1.200 226.833,1.200 228.456 C 1.200 229.939,1.380 231.264,1.600 231.400 C 1.820 231.536,2.000 232.616,2.000 233.800 C 2.000 234.984,2.180 236.064,2.400 236.200 C 2.620 236.336,2.800 237.236,2.800 238.200 C 2.800 239.164,2.980 240.064,3.200 240.200 C 3.420 240.336,3.600 241.247,3.600 242.224 C 3.600 243.201,3.780 244.000,4.000 244.000 C 4.220 244.000,4.400 244.720,4.400 245.600 C 4.400 246.480,4.580 247.200,4.800 247.200 C 5.020 247.200,5.200 247.920,5.200 248.800 C 5.200 249.680,5.380 250.400,5.600 250.400 C 5.820 250.400,6.000 251.120,6.000 252.000 C 6.000 252.880,6.180 253.600,6.400 253.600 C 6.620 253.600,6.800 254.230,6.800 255.000 C 6.800 255.770,6.980 256.400,7.200 256.400 C 7.420 256.400,7.600 256.940,7.600 257.600 C 7.600 258.260,7.759 258.800,7.954 258.800 C 8.149 258.800,8.431 259.787,8.582 260.994 C 8.733 262.200,9.023 263.291,9.228 263.417 C 9.433 263.544,9.600 264.076,9.600 264.600 C 9.600 265.124,9.780 265.664,10.000 265.800 C 10.220 265.936,10.400 266.476,10.400 267.000 C 10.400 267.524,10.544 268.042,10.721 268.151 C 10.897 268.260,11.290 269.261,11.593 270.375 C 11.896 271.489,12.292 272.400,12.472 272.400 C 12.653 272.400,12.800 272.850,12.800 273.400 C 12.800 273.950,12.980 274.400,13.200 274.400 C 13.420 274.400,13.600 274.760,13.600 275.200 C 13.600 275.640,13.780 276.000,14.000 276.000 C 14.220 276.000,14.400 276.540,14.400 277.200 C 14.400 277.860,14.580 278.400,14.800 278.400 C 15.020 278.400,15.200 278.760,15.200 279.200 C 15.200 279.640,15.380 280.000,15.600 280.000 C 15.820 280.000,16.000 280.272,16.000 280.605 C 16.000 280.938,16.180 281.568,16.400 282.005 C 16.620 282.442,16.980 283.158,17.200 283.595 C 17.420 284.032,17.600 284.662,17.600 284.995 C 17.600 285.328,17.780 285.600,18.000 285.600 C 18.220 285.600,18.400 285.960,18.400 286.400 C 18.400 286.840,18.580 287.200,18.800 287.200 C 19.020 287.200,19.200 287.560,19.200 288.000 C 19.200 288.440,19.346 288.800,19.525 288.800 C 19.704 288.800,20.098 289.430,20.400 290.200 C 20.702 290.970,21.096 291.600,21.275 291.600 C 21.454 291.600,21.600 291.960,21.600 292.400 C 21.600 292.840,21.780 293.200,22.000 293.200 C 22.220 293.200,22.400 293.560,22.400 294.000 C 22.400 294.440,22.580 294.800,22.800 294.800 C 23.020 294.800,23.200 295.160,23.200 295.600 C 23.200 296.040,23.359 296.400,23.553 296.400 C 23.746 296.400,24.589 297.840,25.425 299.600 C 26.260 301.360,27.048 302.800,27.174 302.800 C 27.301 302.800,27.664 303.385,27.980 304.100 C 28.297 304.815,28.880 305.749,29.278 306.175 C 29.675 306.602,30.000 307.147,30.000 307.387 C 30.000 307.627,30.360 308.083,30.800 308.400 C 31.240 308.717,31.600 309.297,31.600 309.688 C 31.600 310.080,31.768 310.400,31.973 310.400 C 32.178 310.400,32.462 310.766,32.604 311.213 C 32.746 311.660,33.298 312.462,33.831 312.995 C 34.364 313.528,34.800 314.202,34.800 314.494 C 34.800 314.785,35.160 315.283,35.600 315.600 C 36.040 315.917,36.400 316.409,36.400 316.692 C 36.400 316.975,36.940 317.772,37.600 318.463 C 38.260 319.154,38.800 319.890,38.800 320.099 C 38.800 320.308,39.340 320.983,40.000 321.600 C 40.660 322.217,41.200 322.903,41.200 323.126 C 41.200 323.349,41.830 324.180,42.600 324.973 C 43.370 325.766,44.000 326.567,44.000 326.754 C 44.000 326.940,44.990 328.123,46.200 329.382 C 47.410 330.642,48.400 331.834,48.400 332.032 C 48.400 332.230,50.515 334.471,53.100 337.014 C 58.766 342.586,57.674 341.494,63.104 347.018 C 65.582 349.538,67.770 351.600,67.968 351.600 C 68.166 351.600,69.358 352.590,70.618 353.800 C 71.877 355.010,73.069 356.000,73.267 356.000 C 73.465 356.000,74.257 356.630,75.027 357.400 C 75.797 358.170,76.618 358.800,76.853 358.800 C 77.087 358.800,77.783 359.340,78.400 360.000 C 79.017 360.660,79.737 361.200,80.000 361.200 C 80.263 361.200,80.983 361.740,81.600 362.400 C 82.217 363.060,82.969 363.600,83.272 363.600 C 83.575 363.600,84.083 363.960,84.400 364.400 C 84.717 364.840,85.215 365.200,85.506 365.200 C 85.798 365.200,86.472 365.636,87.005 366.169 C 87.538 366.702,88.340 367.254,88.787 367.396 C 89.234 367.538,89.600 367.822,89.600 368.027 C 89.600 368.232,89.920 368.400,90.312 368.400 C 90.703 368.400,91.283 368.760,91.600 369.200 C 91.917 369.640,92.407 370.000,92.688 370.000 C 92.970 370.000,93.200 370.180,93.200 370.400 C 93.200 370.620,93.470 370.800,93.800 370.800 C 94.130 370.800,94.400 370.946,94.400 371.125 C 94.400 371.304,95.030 371.698,95.800 372.000 C 96.570 372.302,97.200 372.651,97.200 372.775 C 97.200 373.006,99.418 374.200,102.100 375.413 C 102.925 375.786,103.600 376.251,103.600 376.446 C 103.600 376.641,103.960 376.800,104.400 376.800 C 104.840 376.800,105.200 376.980,105.200 377.200 C 105.200 377.420,105.560 377.600,106.000 377.600 C 106.440 377.600,106.800 377.780,106.800 378.000 C 106.800 378.220,107.160 378.400,107.600 378.400 C 108.040 378.400,108.400 378.546,108.400 378.725 C 108.400 378.904,109.030 379.298,109.800 379.600 C 110.570 379.902,111.200 380.296,111.200 380.475 C 111.200 380.654,111.560 380.800,112.000 380.800 C 112.440 380.800,112.800 380.980,112.800 381.200 C 112.800 381.420,113.160 381.600,113.600 381.600 C 114.040 381.600,114.400 381.780,114.400 382.000 C 114.400 382.220,114.672 382.400,115.005 382.400 C 115.338 382.400,115.968 382.580,116.405 382.800 C 116.842 383.020,117.558 383.380,117.995 383.600 C 118.432 383.820,119.062 384.000,119.395 384.000 C 119.728 384.000,120.000 384.180,120.000 384.400 C 120.000 384.620,120.360 384.800,120.800 384.800 C 121.240 384.800,121.600 384.980,121.600 385.200 C 121.600 385.420,122.039 385.600,122.576 385.600 C 123.113 385.600,123.664 385.780,123.800 386.000 C 123.936 386.220,124.397 386.400,124.824 386.400 C 125.251 386.400,125.600 386.580,125.600 386.800 C 125.600 387.020,126.050 387.200,126.600 387.200 C 127.150 387.200,127.600 387.347,127.600 387.528 C 127.600 387.708,128.511 388.104,129.625 388.407 C 130.739 388.710,131.740 389.103,131.849 389.279 C 131.958 389.456,132.476 389.600,133.000 389.600 C 133.524 389.600,134.064 389.780,134.200 390.000 C 134.336 390.220,134.876 390.400,135.400 390.400 C 135.924 390.400,136.456 390.567,136.583 390.772 C 136.709 390.977,137.800 391.267,139.006 391.418 C 140.213 391.569,141.200 391.851,141.200 392.046 C 141.200 392.241,141.729 392.400,142.376 392.400 C 143.023 392.400,143.664 392.580,143.800 392.800 C 143.936 393.020,144.577 393.200,145.224 393.200 C 145.871 393.200,146.400 393.380,146.400 393.600 C 146.400 393.820,147.120 394.000,148.000 394.000 C 148.880 394.000,149.600 394.180,149.600 394.400 C 149.600 394.620,150.320 394.800,151.200 394.800 C 152.080 394.800,152.800 394.980,152.800 395.200 C 152.800 395.420,153.520 395.600,154.400 395.600 C 155.280 395.600,156.000 395.780,156.000 396.000 C 156.000 396.220,156.900 396.400,158.000 396.400 C 159.100 396.400,160.000 396.580,160.000 396.800 C 160.000 397.020,160.900 397.200,162.000 397.200 C 163.100 397.200,164.000 397.380,164.000 397.600 C 164.000 397.822,165.059 398.000,166.376 398.000 C 167.683 398.000,168.864 398.180,169.000 398.400 C 169.136 398.620,170.482 398.800,171.990 398.800 C 173.829 398.800,174.788 398.965,174.900 399.300 C 175.144 400.032,224.856 400.032,225.100 399.300 C 225.212 398.964,226.176 398.800,228.033 398.800 C 229.611 398.800,230.800 398.628,230.800 398.400 C 230.800 398.178,231.867 398.000,233.200 398.000 C 234.533 398.000,235.600 397.822,235.600 397.600 C 235.600 397.380,236.590 397.200,237.800 397.200 C 239.010 397.200,240.000 397.020,240.000 396.800 C 240.000 396.580,240.720 396.400,241.600 396.400 C 242.480 396.400,243.200 396.220,243.200 396.000 C 243.200 395.780,244.100 395.600,245.200 395.600 C 246.300 395.600,247.200 395.420,247.200 395.200 C 247.200 394.980,247.920 394.800,248.800 394.800 C 249.680 394.800,250.400 394.620,250.400 394.400 C 250.400 394.180,251.030 394.000,251.800 394.000 C 252.570 394.000,253.200 393.820,253.200 393.600 C 253.200 393.380,253.830 393.200,254.600 393.200 C 255.370 393.200,256.000 393.020,256.000 392.800 C 256.000 392.580,256.630 392.400,257.400 392.400 C 258.170 392.400,258.800 392.220,258.800 392.000 C 258.800 391.780,259.229 391.600,259.754 391.600 C 260.706 391.600,264.462 390.591,265.600 390.030 C 265.930 389.868,267.055 389.485,268.100 389.180 C 269.145 388.875,270.000 388.485,270.000 388.313 C 270.000 388.141,270.439 388.000,270.976 388.000 C 271.513 388.000,272.064 387.820,272.200 387.600 C 272.336 387.380,272.887 387.200,273.424 387.200 C 273.961 387.200,274.400 387.020,274.400 386.800 C 274.400 386.580,274.760 386.400,275.200 386.400 C 275.640 386.400,276.000 386.220,276.000 386.000 C 276.000 385.780,276.278 385.600,276.618 385.600 C 277.418 385.600,279.200 383.818,279.200 383.018 C 279.200 382.678,279.380 382.400,279.600 382.400 C 279.820 382.400,280.000 382.040,280.000 381.600 C 280.000 381.160,280.180 380.800,280.400 380.800 C 280.626 380.800,280.800 379.667,280.800 378.200 C 280.800 376.733,280.626 375.600,280.400 375.600 C 280.180 375.600,280.000 375.240,280.000 374.800 C 280.000 374.360,279.820 374.000,279.600 374.000 C 279.380 374.000,279.200 373.706,279.200 373.347 C 279.200 372.616,277.275 370.801,276.500 370.800 C 276.225 370.800,276.000 370.620,276.000 370.400 C 276.000 370.161,274.467 370.000,272.200 370.000 C 269.933 370.000,268.400 370.161,268.400 370.400 C 268.400 370.620,267.860 370.800,267.200 370.800 C 266.540 370.800,266.000 370.980,266.000 371.200 C 266.000 371.420,265.550 371.600,265.000 371.600 C 264.450 371.600,264.000 371.780,264.000 372.000 C 264.000 372.220,263.550 372.400,263.000 372.400 C 262.450 372.400,262.000 372.580,262.000 372.800 C 262.000 373.020,261.561 373.200,261.024 373.200 C 260.487 373.200,259.936 373.380,259.800 373.600 C 259.664 373.820,259.113 374.000,258.576 374.000 C 258.039 374.000,257.600 374.180,257.600 374.400 C 257.600 374.620,257.171 374.800,256.646 374.800 C 256.121 374.800,254.726 375.084,253.546 375.431 C 252.366 375.778,250.680 376.246,249.800 376.470 C 248.920 376.694,247.887 377.040,247.505 377.239 C 247.123 377.438,246.279 377.600,245.629 377.600 C 244.979 377.600,244.336 377.780,244.200 378.000 C 244.064 378.220,243.333 378.400,242.576 378.400 C 241.819 378.400,241.200 378.580,241.200 378.800 C 241.200 379.020,240.300 379.200,239.200 379.200 C 238.100 379.200,237.200 379.380,237.200 379.600 C 237.200 379.820,236.401 380.000,235.424 380.000 C 234.447 380.000,233.536 380.180,233.400 380.400 C 233.264 380.620,232.173 380.800,230.976 380.800 C 229.779 380.800,228.800 380.980,228.800 381.200 C 228.800 381.425,227.675 381.600,226.224 381.600 C 224.807 381.600,223.536 381.780,223.400 382.000 C 223.264 382.220,221.723 382.400,219.976 382.400 C 218.125 382.400,216.800 382.567,216.800 382.800 C 216.800 383.054,213.800 383.200,208.600 383.200 C 203.400 383.200,200.400 383.346,200.400 383.600 C 200.400 383.820,200.040 384.000,199.600 384.000 C 199.160 384.000,198.800 383.820,198.800 383.600 C 198.800 383.347,196.008 383.200,191.224 383.200 C 186.604 383.200,183.551 383.044,183.400 382.800 C 183.264 382.580,181.723 382.400,179.976 382.400 C 178.125 382.400,176.800 382.233,176.800 382.000 C 176.800 381.775,175.675 381.600,174.224 381.600 C 172.807 381.600,171.536 381.420,171.400 381.200 C 171.264 380.980,170.173 380.800,168.976 380.800 C 167.779 380.800,166.800 380.620,166.800 380.400 C 166.800 380.180,165.900 380.000,164.800 380.000 C 163.700 380.000,162.800 379.838,162.800 379.640 C 162.800 379.442,162.035 379.178,161.100 379.053 C 157.011 378.506,155.982 378.294,155.774 377.958 C 155.652 377.761,154.933 377.600,154.176 377.600 C 153.419 377.600,152.800 377.440,152.800 377.244 C 152.800 377.048,152.215 376.791,151.500 376.673 C 150.785 376.554,149.480 376.266,148.600 376.033 C 147.720 375.799,145.965 375.387,144.700 375.118 C 143.435 374.848,142.400 374.487,142.400 374.314 C 142.400 374.141,141.950 374.000,141.400 374.000 C 140.850 374.000,140.400 373.820,140.400 373.600 C 140.400 373.380,139.860 373.200,139.200 373.200 C 138.540 373.200,138.000 373.020,138.000 372.800 C 138.000 372.580,137.651 372.400,137.224 372.400 C 136.797 372.400,136.336 372.220,136.200 372.000 C 136.064 371.780,135.513 371.600,134.976 371.600 C 134.439 371.600,134.000 371.420,134.000 371.200 C 134.000 370.980,133.550 370.800,133.000 370.800 C 132.450 370.800,132.000 370.620,132.000 370.400 C 132.000 370.180,131.550 370.000,131.000 370.000 C 130.450 370.000,130.000 369.820,130.000 369.600 C 130.000 369.380,129.640 369.200,129.200 369.200 C 128.760 369.200,128.400 369.020,128.400 368.800 C 128.400 368.580,128.085 368.401,127.700 368.403 C 126.924 368.406,118.678 364.389,118.467 363.905 C 118.393 363.737,117.988 363.600,117.567 363.600 C 117.145 363.600,116.800 363.420,116.800 363.200 C 116.800 362.980,116.440 362.800,116.000 362.800 C 115.560 362.800,115.200 362.620,115.200 362.400 C 115.200 362.180,114.840 362.000,114.400 362.000 C 113.960 362.000,113.600 361.820,113.600 361.600 C 113.600 361.380,113.240 361.200,112.800 361.200 C 112.360 361.200,112.000 361.020,112.000 360.800 C 112.000 360.580,111.640 360.400,111.200 360.400 C 110.760 360.400,110.400 360.247,110.400 360.061 C 110.400 359.874,109.635 359.384,108.700 358.972 C 107.765 358.559,106.910 358.127,106.800 358.010 C 106.690 357.894,106.105 357.544,105.500 357.232 C 104.895 356.920,104.400 356.515,104.400 356.332 C 104.400 356.150,104.080 356.000,103.688 356.000 C 103.297 356.000,102.717 355.640,102.400 355.200 C 102.083 354.760,101.543 354.400,101.200 354.400 C 100.857 354.400,100.317 354.040,100.000 353.600 C 99.683 353.160,99.103 352.800,98.712 352.800 C 98.320 352.800,98.000 352.650,98.000 352.468 C 98.000 352.285,97.505 351.881,96.900 351.570 C 96.295 351.260,95.509 350.689,95.153 350.303 C 94.797 349.916,94.305 349.600,94.060 349.600 C 93.815 349.600,93.116 349.164,92.507 348.631 C 88.950 345.516,88.076 344.800,87.834 344.800 C 87.686 344.800,87.098 344.367,86.528 343.838 C 85.958 343.310,85.026 342.635,84.459 342.338 C 83.891 342.042,82.369 340.765,81.078 339.500 C 79.787 338.235,78.521 337.194,78.265 337.186 C 78.009 337.178,76.810 336.074,75.600 334.733 C 73.596 332.512,70.653 329.578,64.900 324.064 C 63.745 322.958,62.800 321.878,62.800 321.666 C 62.800 321.454,61.945 320.402,60.900 319.327 C 59.855 318.252,58.501 316.644,57.892 315.753 C 57.282 314.862,56.427 313.751,55.992 313.283 C 55.556 312.816,55.200 312.313,55.200 312.165 C 55.200 311.924,54.483 311.049,51.369 307.493 C 50.836 306.884,50.400 306.159,50.400 305.881 C 50.400 305.604,50.040 305.117,49.600 304.800 C 49.160 304.483,48.800 303.943,48.800 303.600 C 48.800 303.257,48.440 302.717,48.000 302.400 C 47.560 302.083,47.200 301.543,47.200 301.200 C 47.200 300.857,46.840 300.317,46.400 300.000 C 45.960 299.683,45.600 299.143,45.600 298.800 C 45.600 298.457,45.240 297.917,44.800 297.600 C 44.360 297.283,44.000 296.703,44.000 296.312 C 44.000 295.920,43.850 295.600,43.668 295.600 C 43.485 295.600,43.080 295.105,42.768 294.500 C 42.456 293.895,42.106 293.310,41.990 293.200 C 41.873 293.090,41.441 292.235,41.028 291.300 C 40.616 290.365,40.126 289.600,39.939 289.600 C 39.753 289.600,39.600 289.240,39.600 288.800 C 39.600 288.360,39.420 288.000,39.200 288.000 C 38.980 288.000,38.800 287.640,38.800 287.200 C 38.800 286.760,38.620 286.400,38.400 286.400 C 38.180 286.400,38.000 286.040,38.000 285.600 C 38.000 285.160,37.820 284.800,37.600 284.800 C 37.380 284.800,37.200 284.455,37.200 284.033 C 37.200 283.612,37.063 283.207,36.896 283.133 C 36.729 283.060,35.786 281.380,34.800 279.400 C 33.814 277.420,32.871 275.740,32.704 275.667 C 32.537 275.593,32.400 275.199,32.400 274.790 C 32.400 274.382,32.220 273.936,32.000 273.800 C 31.780 273.664,31.600 273.113,31.600 272.576 C 31.600 272.039,31.420 271.600,31.200 271.600 C 30.980 271.600,30.800 271.240,30.800 270.800 C 30.800 270.360,30.620 270.000,30.400 270.000 C 30.180 270.000,30.000 269.561,30.000 269.024 C 30.000 268.487,29.820 267.936,29.600 267.800 C 29.380 267.664,29.200 267.203,29.200 266.776 C 29.200 266.349,29.020 266.000,28.800 266.000 C 28.580 266.000,28.400 265.550,28.400 265.000 C 28.400 264.450,28.220 264.000,28.000 264.000 C 27.780 264.000,27.600 263.550,27.600 263.000 C 27.600 262.450,27.420 262.000,27.200 262.000 C 26.980 262.000,26.800 261.460,26.800 260.800 C 26.800 260.140,26.620 259.600,26.400 259.600 C 26.180 259.600,26.000 259.150,26.000 258.600 C 26.000 258.050,25.841 257.600,25.646 257.600 C 25.451 257.600,25.169 256.613,25.018 255.406 C 24.867 254.200,24.577 253.109,24.372 252.983 C 24.167 252.856,24.000 252.371,24.000 251.905 C 24.000 251.004,23.335 248.661,22.751 247.505 C 22.558 247.123,22.400 246.279,22.400 245.629 C 22.400 244.979,22.239 244.348,22.042 244.226 C 21.706 244.018,21.494 242.989,20.947 238.900 C 20.822 237.965,20.558 237.200,20.360 237.200 C 20.162 237.200,20.000 236.401,20.000 235.424 C 20.000 234.447,19.820 233.536,19.600 233.400 C 19.380 233.264,19.200 232.274,19.200 231.200 C 19.200 230.126,19.020 229.136,18.800 229.000 C 18.580 228.864,18.400 227.694,18.400 226.400 C 18.400 225.106,18.220 223.936,18.000 223.800 C 17.780 223.664,17.600 222.069,17.600 220.256 C 17.600 218.443,17.416 216.776,17.190 216.550 C 16.627 215.987,16.627 184.013,17.191 183.449 C 17.416 183.224,17.600 181.557,17.600 179.744 C 17.600 177.931,17.780 176.336,18.000 176.200 C 18.220 176.064,18.400 174.793,18.400 173.376 C 18.400 171.959,18.563 170.800,18.763 170.800 C 18.963 170.800,19.220 169.855,19.334 168.700 C 19.449 167.545,19.746 165.610,19.995 164.400 C 20.243 163.190,20.545 161.435,20.664 160.500 C 20.783 159.565,21.042 158.800,21.240 158.800 C 21.438 158.800,21.600 158.181,21.600 157.424 C 21.600 156.667,21.780 155.936,22.000 155.800 C 22.220 155.664,22.400 154.944,22.400 154.200 C 22.400 153.456,22.580 152.736,22.800 152.600 C 23.020 152.464,23.200 151.744,23.200 151.000 C 23.200 150.256,23.380 149.536,23.600 149.400 C 23.820 149.264,24.000 148.724,24.000 148.200 C 24.000 147.676,24.167 147.144,24.372 147.017 C 24.577 146.891,24.867 145.800,25.018 144.594 C 25.169 143.387,25.451 142.400,25.646 142.400 C 25.841 142.400,26.000 141.860,26.000 141.200 C 26.000 140.540,26.180 140.000,26.400 140.000 C 26.620 140.000,26.800 139.550,26.800 139.000 C 26.800 138.450,26.980 138.000,27.200 138.000 C 27.420 138.000,27.600 137.460,27.600 136.800 C 27.600 136.140,27.780 135.600,28.000 135.600 C 28.220 135.600,28.400 135.251,28.400 134.824 C 28.400 134.397,28.580 133.936,28.800 133.800 C 29.020 133.664,29.200 133.113,29.200 132.576 C 29.200 132.039,29.380 131.600,29.600 131.600 C 29.820 131.600,30.000 131.240,30.000 130.800 C 30.000 130.360,30.180 130.000,30.400 130.000 C 30.620 130.000,30.800 129.460,30.800 128.800 C 30.800 128.140,30.980 127.600,31.200 127.600 C 31.420 127.600,31.600 127.240,31.600 126.800 C 31.600 126.360,31.780 126.000,32.000 126.000 C 32.220 126.000,32.400 125.640,32.400 125.200 C 32.400 124.760,32.580 124.400,32.800 124.400 C 33.020 124.400,33.200 124.040,33.200 123.600 C 33.200 123.160,33.380 122.800,33.600 122.800 C 33.820 122.800,34.000 122.440,34.000 122.000 C 34.000 121.560,34.180 121.200,34.400 121.200 C 34.620 121.200,34.800 120.851,34.800 120.424 C 34.800 119.997,34.980 119.536,35.200 119.400 C 35.420 119.264,35.600 118.803,35.600 118.376 C 35.600 117.949,35.735 117.599,35.900 117.597 C 36.065 117.595,36.398 117.190,36.640 116.697 C 37.822 114.289,39.030 112.187,39.300 112.067 C 39.465 111.993,39.600 111.588,39.600 111.167 C 39.600 110.745,39.780 110.400,40.000 110.400 C 40.220 110.400,40.400 110.040,40.400 109.600 C 40.400 109.160,40.577 108.800,40.792 108.800 C 41.008 108.800,41.298 108.350,41.436 107.800 C 41.574 107.250,41.847 106.800,42.043 106.800 C 42.240 106.800,42.400 106.522,42.400 106.183 C 42.400 105.844,42.760 105.180,43.200 104.708 C 43.640 104.236,44.000 103.613,44.000 103.325 C 44.000 103.036,44.180 102.800,44.400 102.800 C 44.620 102.800,44.800 102.530,44.800 102.200 C 44.800 101.870,44.980 101.600,45.200 101.600 C 45.420 101.600,45.600 101.330,45.600 101.000 C 45.600 100.670,45.780 100.400,46.000 100.400 C 46.220 100.400,46.400 100.080,46.400 99.688 C 46.400 99.297,46.760 98.717,47.200 98.400 C 47.640 98.083,48.000 97.638,48.001 97.412 C 48.001 97.185,48.541 96.370,49.200 95.600 C 49.859 94.830,50.399 93.975,50.399 93.700 C 50.400 93.425,50.760 93.200,51.200 93.200 C 51.640 93.200,52.000 93.380,52.000 93.600 C 52.000 93.820,52.540 94.000,53.200 94.000 C 53.860 94.000,54.400 94.180,54.400 94.400 C 54.400 94.620,55.300 94.800,56.400 94.800 C 57.500 94.800,58.400 94.980,58.400 95.200 C 58.400 95.441,60.067 95.600,62.600 95.600 C 65.133 95.600,66.800 95.441,66.800 95.200 C 66.800 94.980,67.700 94.800,68.800 94.800 C 69.900 94.800,70.800 94.620,70.800 94.400 C 70.800 94.180,71.430 94.000,72.200 94.000 C 72.970 94.000,73.600 93.820,73.600 93.600 C 73.600 93.380,73.960 93.200,74.400 93.200 C 74.840 93.200,75.200 93.020,75.200 92.800 C 75.200 92.580,75.560 92.400,76.000 92.400 C 76.440 92.400,76.800 92.220,76.800 92.000 C 76.800 91.780,77.135 91.600,77.544 91.600 C 80.061 91.600,88.335 83.484,89.471 79.900 C 89.593 79.515,89.852 79.200,90.047 79.200 C 90.241 79.200,90.400 78.851,90.400 78.424 C 90.400 77.997,90.563 77.546,90.763 77.423 C 90.962 77.300,91.249 76.299,91.400 75.200 C 91.551 74.100,91.838 73.200,92.038 73.200 C 92.237 73.200,92.400 72.311,92.400 71.224 C 92.400 70.137,92.580 69.136,92.800 69.000 C 93.020 68.864,93.200 67.154,93.200 65.200 C 93.200 63.246,93.020 61.536,92.800 61.400 C 92.580 61.264,92.400 60.353,92.400 59.376 C 92.400 58.399,92.245 57.600,92.056 57.600 C 91.867 57.600,91.605 56.568,91.475 55.306 C 91.345 54.045,91.050 52.950,90.819 52.873 C 90.589 52.796,90.400 52.388,90.400 51.967 C 90.400 51.545,90.220 51.200,90.000 51.200 C 89.780 51.200,89.600 50.840,89.600 50.400 C 89.600 49.960,89.420 49.600,89.200 49.600 C 88.980 49.600,88.797 49.375,88.793 49.100 C 88.777 48.023,82.615 41.215,81.647 41.205 C 81.343 41.202,80.803 40.884,80.447 40.497 C 80.091 40.111,79.305 39.540,78.700 39.230 C 78.095 38.919,77.600 38.515,77.600 38.332 C 77.600 38.150,77.240 38.000,76.800 38.000 C 76.360 38.000,76.000 37.820,76.000 37.600 C 76.000 37.380,75.550 37.200,75.000 37.200 C 74.450 37.200,74.000 37.020,74.000 36.800 C 74.000 36.580,73.550 36.400,73.000 36.400 C 72.450 36.400,72.000 36.220,72.000 36.000 C 72.000 35.780,71.190 35.600,70.200 35.600 C 69.210 35.600,68.400 35.420,68.400 35.200 C 68.400 34.952,66.200 34.800,62.600 34.800 C 59.000 34.800,56.800 34.952,56.800 35.200 M67.086 51.450 C 70.839 52.724,75.398 56.872,75.943 59.508 C 76.022 59.889,76.264 60.420,76.482 60.688 C 77.497 61.939,76.964 68.511,75.621 71.296 C 69.811 83.341,54.069 82.039,48.851 69.081 C 44.907 59.288,56.671 47.914,67.086 51.450 M336.200 57.200 C 336.064 57.420,335.333 57.600,334.576 57.600 C 333.819 57.600,333.200 57.780,333.200 58.000 C 333.200 58.220,332.922 58.400,332.582 58.400 C 331.886 58.400,330.000 60.140,330.000 60.782 C 330.000 61.012,329.820 61.200,329.600 61.200 C 329.380 61.200,329.200 61.639,329.200 62.176 C 329.200 62.713,329.020 63.264,328.800 63.400 C 328.580 63.536,328.400 64.436,328.400 65.400 C 328.400 66.364,328.580 67.264,328.800 67.400 C 329.020 67.536,329.200 68.053,329.200 68.548 C 329.200 69.044,329.560 69.836,330.000 70.308 C 330.440 70.780,330.800 71.342,330.800 71.556 C 330.800 71.771,331.160 72.060,331.600 72.200 C 332.040 72.340,332.400 72.593,332.400 72.763 C 332.400 73.921,339.520 74.512,341.280 73.500 C 342.686 72.691,344.800 70.477,344.800 69.813 C 344.800 69.476,344.980 69.200,345.200 69.200 C 345.437 69.200,345.600 67.733,345.600 65.600 C 345.600 63.467,345.437 62.000,345.200 62.000 C 344.980 62.000,344.800 61.712,344.800 61.360 C 344.800 60.815,343.774 59.696,341.717 57.999 C 341.451 57.779,340.697 57.600,340.040 57.600 C 339.384 57.600,338.736 57.420,338.600 57.200 C 338.464 56.980,337.924 56.800,337.400 56.800 C 336.876 56.800,336.336 56.980,336.200 57.200 M190.400 64.800 C 190.400 65.022,189.341 65.200,188.024 65.200 C 186.717 65.200,185.536 65.380,185.400 65.600 C 185.264 65.820,184.353 66.000,183.376 66.000 C 182.399 66.000,181.600 66.180,181.600 66.400 C 181.600 66.620,181.071 66.800,180.424 66.800 C 179.777 66.800,179.136 66.980,179.000 67.200 C 178.864 67.420,178.223 67.600,177.576 67.600 C 176.929 67.600,176.400 67.780,176.400 68.000 C 176.400 68.220,175.961 68.400,175.424 68.400 C 174.887 68.400,174.336 68.580,174.200 68.800 C 174.064 69.020,173.603 69.200,173.176 69.200 C 172.749 69.200,172.400 69.380,172.400 69.600 C 172.400 69.820,172.040 70.000,171.600 70.000 C 171.160 70.000,170.800 70.180,170.800 70.400 C 170.800 70.620,170.260 70.800,169.600 70.800 C 168.940 70.800,168.400 70.980,168.400 71.200 C 168.400 71.420,168.040 71.600,167.600 71.600 C 167.160 71.600,166.800 71.780,166.800 72.000 C 166.800 72.220,166.564 72.400,166.275 72.400 C 165.987 72.400,165.364 72.760,164.892 73.200 C 164.420 73.640,163.756 74.000,163.417 74.000 C 163.078 74.000,162.800 74.180,162.800 74.400 C 162.800 74.620,162.518 74.800,162.173 74.800 C 161.559 74.800,158.730 76.709,158.467 77.300 C 158.393 77.465,158.105 77.600,157.826 77.600 C 157.547 77.600,156.754 78.140,156.063 78.800 C 155.372 79.460,154.634 80.000,154.421 80.000 C 153.951 80.000,143.600 90.260,143.600 90.725 C 143.600 90.907,143.060 91.661,142.400 92.400 C 141.740 93.139,141.200 93.942,141.200 94.184 C 141.200 94.426,140.840 94.883,140.400 95.200 C 139.960 95.517,139.600 96.057,139.600 96.400 C 139.600 96.743,139.240 97.283,138.800 97.600 C 138.360 97.917,138.000 98.497,138.000 98.888 C 138.000 99.280,137.820 99.600,137.600 99.600 C 137.380 99.600,137.200 99.870,137.200 100.200 C 137.200 100.530,137.020 100.800,136.800 100.800 C 136.580 100.800,136.400 101.070,136.400 101.400 C 136.400 101.730,136.220 102.000,136.000 102.000 C 135.780 102.000,135.600 102.360,135.600 102.800 C 135.600 103.240,135.420 103.600,135.200 103.600 C 134.980 103.600,134.800 103.960,134.800 104.400 C 134.800 104.840,134.620 105.200,134.400 105.200 C 134.180 105.200,134.000 105.472,134.000 105.805 C 134.000 106.393,133.833 106.818,132.862 108.695 C 132.608 109.187,132.400 109.862,132.400 110.195 C 132.400 110.528,132.220 110.800,132.000 110.800 C 131.780 110.800,131.600 111.239,131.600 111.776 C 131.600 112.313,131.420 112.864,131.200 113.000 C 130.980 113.136,130.800 113.676,130.800 114.200 C 130.800 114.724,130.620 115.264,130.400 115.400 C 130.180 115.536,130.000 116.267,130.000 117.024 C 130.000 117.781,129.820 118.400,129.600 118.400 C 129.380 118.400,129.200 119.120,129.200 120.000 C 129.200 120.880,129.020 121.600,128.800 121.600 C 128.578 121.600,128.400 122.667,128.400 124.000 C 128.400 125.333,128.222 126.400,128.000 126.400 C 127.742 126.400,127.600 130.876,127.600 139.029 C 127.600 151.980,127.506 152.800,126.029 152.800 C 125.793 152.800,125.600 152.980,125.600 153.200 C 125.600 153.420,125.240 153.600,124.800 153.600 C 124.360 153.600,124.000 153.750,124.000 153.932 C 124.000 154.115,123.507 154.520,122.905 154.832 C 121.377 155.624,115.200 161.423,115.200 162.065 C 115.200 162.268,114.840 162.820,114.400 163.292 C 113.960 163.764,113.600 164.387,113.600 164.675 C 113.600 164.964,113.420 165.200,113.200 165.200 C 112.980 165.200,112.800 165.549,112.800 165.976 C 112.800 166.403,112.620 166.864,112.400 167.000 C 112.180 167.136,112.000 167.687,112.000 168.224 C 112.000 168.761,111.820 169.200,111.600 169.200 C 111.380 169.200,111.200 169.729,111.200 170.376 C 111.200 171.023,111.020 171.664,110.800 171.800 C 110.247 172.142,110.247 288.258,110.800 288.600 C 111.020 288.736,111.200 289.366,111.200 290.000 C 111.200 290.634,111.380 291.264,111.600 291.400 C 111.820 291.536,112.000 291.997,112.000 292.424 C 112.000 292.851,112.180 293.200,112.400 293.200 C 112.620 293.200,112.800 293.560,112.800 294.000 C 112.800 294.440,112.980 294.800,113.200 294.800 C 113.420 294.800,113.600 295.160,113.600 295.600 C 113.600 296.040,113.780 296.400,114.000 296.400 C 114.220 296.400,114.400 296.720,114.400 297.112 C 114.400 297.503,114.760 298.083,115.200 298.400 C 115.640 298.717,116.000 299.183,116.000 299.435 C 116.000 299.965,120.166 304.400,120.665 304.400 C 120.849 304.401,121.523 304.851,122.162 305.400 C 122.801 305.950,123.464 306.400,123.634 306.400 C 123.804 306.400,124.181 306.632,124.471 306.915 C 125.323 307.745,127.835 308.800,128.960 308.800 C 129.532 308.800,130.000 308.980,130.000 309.200 C 130.000 309.420,130.720 309.600,131.600 309.600 C 132.480 309.600,133.200 309.780,133.200 310.000 C 133.200 310.265,155.733 310.400,200.000 310.400 C 244.267 310.400,266.800 310.265,266.800 310.000 C 266.800 309.780,267.520 309.600,268.400 309.600 C 269.280 309.600,270.000 309.420,270.000 309.200 C 270.000 308.980,270.468 308.800,271.040 308.800 C 272.165 308.800,274.677 307.745,275.529 306.915 C 275.819 306.632,276.196 306.400,276.366 306.400 C 276.536 306.400,277.199 305.950,277.838 305.400 C 278.477 304.851,279.151 304.401,279.335 304.400 C 279.834 304.400,284.000 299.965,284.000 299.435 C 284.000 299.183,284.360 298.717,284.800 298.400 C 285.240 298.083,285.600 297.503,285.600 297.112 C 285.600 296.720,285.780 296.400,286.000 296.400 C 286.220 296.400,286.400 296.040,286.400 295.600 C 286.400 295.160,286.580 294.800,286.800 294.800 C 287.020 294.800,287.200 294.440,287.200 294.000 C 287.200 293.560,287.380 293.200,287.600 293.200 C 287.820 293.200,288.000 292.851,288.000 292.424 C 288.000 291.997,288.180 291.536,288.400 291.400 C 288.620 291.264,288.800 290.659,288.800 290.056 C 288.800 289.453,288.981 288.779,289.203 288.557 C 290.214 287.546,289.375 169.200,288.356 169.200 C 288.160 169.200,288.000 168.761,288.000 168.224 C 288.000 167.687,287.820 167.136,287.600 167.000 C 287.380 166.864,287.200 166.403,287.200 165.976 C 287.200 165.549,287.020 165.200,286.800 165.200 C 286.580 165.200,286.400 164.964,286.400 164.675 C 286.400 164.387,286.040 163.764,285.600 163.292 C 285.160 162.820,284.800 162.268,284.800 162.065 C 284.800 161.355,277.311 154.400,276.546 154.400 C 276.246 154.400,276.000 154.264,276.000 154.098 C 276.000 153.931,275.415 153.537,274.700 153.222 C 272.314 152.171,272.400 152.700,272.400 139.029 C 272.400 130.876,272.258 126.400,272.000 126.400 C 271.778 126.400,271.600 125.333,271.600 124.000 C 271.600 122.667,271.422 121.600,271.200 121.600 C 270.980 121.600,270.800 120.880,270.800 120.000 C 270.800 119.120,270.620 118.400,270.400 118.400 C 270.180 118.400,270.000 117.781,270.000 117.024 C 270.000 116.267,269.820 115.536,269.600 115.400 C 269.380 115.264,269.200 114.724,269.200 114.200 C 269.200 113.676,269.020 113.136,268.800 113.000 C 268.580 112.864,268.400 112.313,268.400 111.776 C 268.400 111.239,268.220 110.800,268.000 110.800 C 267.780 110.800,267.600 110.528,267.600 110.195 C 267.600 109.862,267.392 109.187,267.138 108.695 C 266.167 106.818,266.000 106.393,266.000 105.805 C 266.000 105.472,265.820 105.200,265.600 105.200 C 265.380 105.200,265.200 104.840,265.200 104.400 C 265.200 103.960,265.020 103.600,264.800 103.600 C 264.580 103.600,264.400 103.322,264.400 102.983 C 264.400 102.644,264.040 101.980,263.600 101.508 C 263.160 101.036,262.800 100.413,262.800 100.125 C 262.800 99.836,262.620 99.600,262.400 99.600 C 262.180 99.600,262.000 99.280,262.000 98.888 C 262.000 98.497,261.640 97.917,261.200 97.600 C 260.760 97.283,260.400 96.743,260.400 96.400 C 260.400 96.057,260.040 95.517,259.600 95.200 C 259.160 94.883,258.800 94.391,258.800 94.108 C 258.800 93.825,258.260 93.028,257.600 92.337 C 256.940 91.646,256.400 90.927,256.400 90.738 C 256.400 90.264,246.057 80.000,245.579 80.000 C 245.366 80.000,244.628 79.460,243.937 78.800 C 243.246 78.140,242.453 77.600,242.174 77.600 C 241.895 77.600,241.607 77.465,241.533 77.300 C 241.270 76.709,238.441 74.800,237.827 74.800 C 237.482 74.800,237.200 74.620,237.200 74.400 C 237.200 74.180,236.922 74.000,236.583 74.000 C 236.244 74.000,235.580 73.640,235.108 73.200 C 234.636 72.760,234.013 72.400,233.725 72.400 C 233.436 72.400,233.200 72.220,233.200 72.000 C 233.200 71.780,232.840 71.600,232.400 71.600 C 231.960 71.600,231.600 71.420,231.600 71.200 C 231.600 70.980,231.060 70.800,230.400 70.800 C 229.740 70.800,229.200 70.620,229.200 70.400 C 229.200 70.180,228.840 70.000,228.400 70.000 C 227.960 70.000,227.600 69.820,227.600 69.600 C 227.600 69.380,227.251 69.200,226.824 69.200 C 226.397 69.200,225.936 69.020,225.800 68.800 C 225.664 68.580,225.113 68.400,224.576 68.400 C 224.039 68.400,223.600 68.220,223.600 68.000 C 223.600 67.780,223.071 67.600,222.424 67.600 C 221.777 67.600,221.136 67.420,221.000 67.200 C 220.864 66.980,220.223 66.800,219.576 66.800 C 218.929 66.800,218.400 66.620,218.400 66.400 C 218.400 66.180,217.601 66.000,216.624 66.000 C 215.647 66.000,214.736 65.820,214.600 65.600 C 214.464 65.380,213.283 65.200,211.976 65.200 C 210.659 65.200,209.600 65.022,209.600 64.800 C 209.600 64.544,206.133 64.400,200.000 64.400 C 193.867 64.400,190.400 64.544,190.400 64.800 M210.000 81.089 C 218.213 82.473,228.696 87.124,234.496 91.957 C 234.920 92.311,235.657 92.927,236.134 93.327 C 238.760 95.532,242.577 99.453,244.843 102.275 C 248.304 106.585,252.777 115.173,254.076 120.000 C 256.021 127.226,256.161 128.556,256.181 140.000 L 256.200 151.000 248.000 151.000 L 239.800 151.000 239.549 142.000 C 239.238 130.858,239.094 129.792,237.090 123.800 C 236.320 121.497,233.013 114.815,232.438 114.400 C 232.286 114.290,231.722 113.570,231.185 112.800 C 222.069 99.733,202.519 94.141,186.257 99.950 C 183.812 100.823,178.271 103.684,177.600 104.419 C 177.490 104.540,176.770 105.078,176.000 105.615 C 171.258 108.921,165.452 116.801,163.191 123.000 C 163.031 123.440,162.697 124.303,162.450 124.919 C 162.202 125.534,162.000 126.469,162.000 126.995 C 162.000 127.522,161.842 128.051,161.649 128.170 C 161.103 128.507,160.756 132.618,160.466 142.200 L 160.200 151.000 152.000 151.000 L 143.800 151.000 143.843 140.000 C 143.866 133.950,144.079 128.010,144.315 126.800 C 145.011 123.236,145.242 122.246,145.575 121.400 C 145.748 120.960,146.106 119.880,146.371 119.000 C 146.984 116.964,147.194 116.440,148.843 112.822 C 155.926 97.283,171.950 84.514,188.037 81.592 C 189.447 81.336,191.140 80.976,191.800 80.792 C 193.316 80.370,207.064 80.594,210.000 81.089 M357.600 84.400 C 357.600 84.620,357.126 84.800,356.547 84.800 C 355.968 84.800,355.203 85.127,354.847 85.528 C 354.491 85.928,353.885 86.372,353.500 86.515 C 353.115 86.658,352.800 87.051,352.800 87.387 C 352.800 87.724,352.665 88.001,352.500 88.003 C 352.335 88.005,351.975 88.491,351.700 89.083 C 351.102 90.370,351.020 96.400,351.600 96.400 C 351.820 96.400,352.000 96.720,352.000 97.112 C 352.000 97.503,352.360 98.083,352.800 98.400 C 353.240 98.717,353.600 99.297,353.600 99.688 C 353.600 100.080,353.780 100.400,354.000 100.400 C 354.220 100.400,354.400 100.670,354.400 101.000 C 354.400 101.330,354.580 101.600,354.800 101.600 C 355.020 101.600,355.200 101.870,355.200 102.200 C 355.200 102.530,355.380 102.800,355.600 102.800 C 355.820 102.800,356.000 103.036,356.000 103.325 C 356.000 103.613,356.360 104.236,356.800 104.708 C 357.240 105.180,357.600 105.844,357.600 106.183 C 357.600 106.522,357.760 106.800,357.957 106.800 C 358.153 106.800,358.426 107.250,358.564 107.800 C 358.702 108.350,358.992 108.800,359.208 108.800 C 359.423 108.800,359.600 109.160,359.600 109.600 C 359.600 110.040,359.780 110.400,360.000 110.400 C 360.220 110.400,360.400 110.760,360.400 111.200 C 360.400 111.640,360.580 112.000,360.800 112.000 C 361.020 112.000,361.200 112.360,361.200 112.800 C 361.200 113.240,361.335 113.601,361.500 113.603 C 361.665 113.605,361.999 114.010,362.241 114.503 C 362.484 114.996,363.249 116.453,363.941 117.741 C 364.634 119.028,365.200 120.333,365.200 120.641 C 365.200 120.948,365.380 121.200,365.600 121.200 C 365.820 121.200,366.000 121.560,366.000 122.000 C 366.000 122.440,366.180 122.800,366.400 122.800 C 366.620 122.800,366.800 123.034,366.800 123.320 C 366.800 124.056,367.741 125.993,368.100 125.997 C 368.265 125.999,368.400 126.360,368.400 126.800 C 368.400 127.240,368.580 127.600,368.800 127.600 C 369.020 127.600,369.200 128.140,369.200 128.800 C 369.200 129.460,369.380 130.000,369.600 130.000 C 369.820 130.000,370.000 130.360,370.000 130.800 C 370.000 131.240,370.180 131.600,370.400 131.600 C 370.620 131.600,370.800 132.140,370.800 132.800 C 370.800 133.460,370.980 134.000,371.200 134.000 C 371.420 134.000,371.600 134.360,371.600 134.800 C 371.600 135.240,371.780 135.600,372.000 135.600 C 372.220 135.600,372.400 136.140,372.400 136.800 C 372.400 137.460,372.580 138.000,372.800 138.000 C 373.020 138.000,373.200 138.439,373.200 138.976 C 373.200 139.513,373.380 140.064,373.600 140.200 C 373.820 140.336,374.000 140.887,374.000 141.424 C 374.000 141.961,374.180 142.400,374.400 142.400 C 374.620 142.400,374.800 142.829,374.800 143.354 C 374.800 143.879,375.084 145.274,375.431 146.454 C 375.778 147.634,376.246 149.320,376.470 150.200 C 376.694 151.080,377.040 152.113,377.239 152.495 C 377.438 152.877,377.600 153.721,377.600 154.371 C 377.600 155.021,377.780 155.664,378.000 155.800 C 378.220 155.936,378.400 156.667,378.400 157.424 C 378.400 158.181,378.580 158.800,378.800 158.800 C 379.020 158.800,379.200 159.599,379.200 160.576 C 379.200 161.553,379.380 162.464,379.600 162.600 C 379.820 162.736,380.000 163.636,380.000 164.600 C 380.000 165.564,380.180 166.464,380.400 166.600 C 380.620 166.736,380.800 167.827,380.800 169.024 C 380.800 170.221,380.980 171.200,381.200 171.200 C 381.425 171.200,381.600 172.325,381.600 173.776 C 381.600 175.193,381.780 176.464,382.000 176.600 C 382.220 176.736,382.400 178.356,382.400 180.200 C 382.400 182.044,382.580 183.664,382.800 183.800 C 383.321 184.122,383.349 215.688,382.828 216.220 C 382.624 216.429,382.357 218.130,382.237 220.000 C 381.788 226.935,381.525 229.200,381.167 229.200 C 380.965 229.200,380.800 230.089,380.800 231.176 C 380.800 232.263,380.620 233.264,380.400 233.400 C 380.180 233.536,380.000 234.436,380.000 235.400 C 380.000 236.364,379.820 237.264,379.600 237.400 C 379.380 237.536,379.200 238.447,379.200 239.424 C 379.200 240.401,379.020 241.200,378.800 241.200 C 378.580 241.200,378.400 241.819,378.400 242.576 C 378.400 243.333,378.220 244.064,378.000 244.200 C 377.780 244.336,377.600 245.056,377.600 245.800 C 377.600 246.544,377.420 247.264,377.200 247.400 C 376.980 247.536,376.800 248.179,376.800 248.829 C 376.800 249.479,376.637 250.323,376.437 250.705 C 375.840 251.847,374.800 255.622,374.800 256.646 C 374.800 257.171,374.620 257.600,374.400 257.600 C 374.180 257.600,374.000 258.140,374.000 258.800 C 374.000 259.460,373.820 260.000,373.600 260.000 C 373.380 260.000,373.200 260.450,373.200 261.000 C 373.200 261.550,373.020 262.000,372.800 262.000 C 372.580 262.000,372.400 262.540,372.400 263.200 C 372.400 263.860,372.220 264.400,372.000 264.400 C 371.780 264.400,371.600 264.760,371.600 265.200 C 371.600 265.640,371.420 266.000,371.200 266.000 C 370.980 266.000,370.800 266.540,370.800 267.200 C 370.800 267.860,370.620 268.400,370.400 268.400 C 370.180 268.400,370.000 268.760,370.000 269.200 C 370.000 269.640,369.820 270.000,369.600 270.000 C 369.380 270.000,369.200 270.540,369.200 271.200 C 369.200 271.860,369.020 272.400,368.800 272.400 C 368.580 272.400,368.400 272.760,368.400 273.200 C 368.400 273.640,368.220 274.000,368.000 274.000 C 367.780 274.000,367.600 274.360,367.600 274.800 C 367.600 275.240,367.420 275.600,367.200 275.600 C 366.980 275.600,366.800 275.960,366.800 276.400 C 366.800 276.840,366.620 277.200,366.400 277.200 C 366.180 277.200,366.000 277.465,366.000 277.788 C 366.000 278.111,365.640 279.017,365.200 279.800 C 364.760 280.583,364.400 281.489,364.400 281.812 C 364.400 282.135,364.265 282.401,364.100 282.403 C 363.935 282.405,363.602 282.810,363.360 283.303 C 362.178 285.711,360.970 287.813,360.700 287.933 C 360.535 288.007,360.400 288.412,360.400 288.833 C 360.400 289.255,360.220 289.600,360.000 289.600 C 359.780 289.600,359.600 289.960,359.600 290.400 C 359.600 290.840,359.423 291.200,359.208 291.200 C 358.992 291.200,358.702 291.650,358.564 292.200 C 358.426 292.750,358.153 293.200,357.957 293.200 C 357.760 293.200,357.600 293.478,357.600 293.817 C 357.600 294.156,357.240 294.820,356.800 295.292 C 356.360 295.764,356.000 296.387,356.000 296.675 C 356.000 296.964,355.820 297.200,355.600 297.200 C 355.380 297.200,355.200 297.470,355.200 297.800 C 355.200 298.130,355.020 298.400,354.800 298.400 C 354.580 298.400,354.400 298.670,354.400 299.000 C 354.400 299.330,354.220 299.600,354.000 299.600 C 353.780 299.600,353.600 299.920,353.600 300.312 C 353.600 300.703,353.240 301.283,352.800 301.600 C 352.360 301.917,352.000 302.362,351.999 302.588 C 351.999 302.815,351.459 303.630,350.800 304.400 C 350.141 305.170,349.601 306.025,349.601 306.300 C 349.600 306.575,349.240 306.800,348.800 306.800 C 348.360 306.800,348.000 306.620,348.000 306.400 C 348.000 306.180,347.460 306.000,346.800 306.000 C 346.140 306.000,345.600 305.820,345.600 305.600 C 345.600 305.380,344.700 305.200,343.600 305.200 C 342.500 305.200,341.600 305.020,341.600 304.800 C 341.600 304.559,339.933 304.400,337.400 304.400 C 334.867 304.400,333.200 304.559,333.200 304.800 C 333.200 305.020,332.311 305.200,331.224 305.200 C 330.137 305.200,329.136 305.380,329.000 305.600 C 328.864 305.820,328.223 306.000,327.576 306.000 C 326.929 306.000,326.400 306.180,326.400 306.400 C 326.400 306.620,326.040 306.800,325.600 306.800 C 325.160 306.800,324.800 306.980,324.800 307.200 C 324.800 307.420,324.440 307.600,324.000 307.600 C 323.560 307.600,323.200 307.780,323.200 308.000 C 323.200 308.220,322.921 308.400,322.580 308.400 C 320.416 308.400,312.985 315.001,311.513 318.232 C 311.270 318.764,310.920 319.200,310.736 319.200 C 310.551 319.200,310.400 319.545,310.400 319.967 C 310.400 320.388,310.265 320.793,310.100 320.867 C 309.671 321.057,308.396 324.830,308.398 325.900 C 308.399 326.395,308.220 326.800,308.000 326.800 C 307.780 326.800,307.600 327.689,307.600 328.776 C 307.600 329.863,307.420 330.864,307.200 331.000 C 306.980 331.136,306.800 332.846,306.800 334.800 C 306.800 336.754,306.980 338.464,307.200 338.600 C 307.420 338.736,307.600 339.636,307.600 340.600 C 307.600 341.564,307.780 342.464,308.000 342.600 C 308.220 342.736,308.401 343.422,308.402 344.124 C 308.404 344.826,308.674 345.916,309.002 346.546 C 309.331 347.176,309.600 347.941,309.600 348.246 C 309.600 348.551,309.780 348.800,310.000 348.800 C 310.220 348.800,310.400 349.160,310.400 349.600 C 310.400 350.040,310.580 350.400,310.800 350.400 C 311.020 350.400,311.203 350.625,311.207 350.900 C 311.224 352.015,317.377 358.800,318.373 358.800 C 318.731 358.800,319.283 359.160,319.600 359.600 C 319.917 360.040,320.457 360.400,320.800 360.400 C 321.143 360.400,321.683 360.760,322.000 361.200 C 322.317 361.640,322.897 362.000,323.288 362.000 C 323.680 362.000,324.000 362.180,324.000 362.400 C 324.000 362.620,324.450 362.800,325.000 362.800 C 325.550 362.800,326.000 362.980,326.000 363.200 C 326.000 363.420,326.439 363.600,326.976 363.600 C 327.513 363.600,328.064 363.780,328.200 364.000 C 328.336 364.220,329.157 364.400,330.024 364.400 C 330.891 364.400,331.600 364.580,331.600 364.800 C 331.600 365.048,333.800 365.200,337.400 365.200 C 341.000 365.200,343.200 365.048,343.200 364.800 C 343.200 364.580,343.920 364.400,344.800 364.400 C 345.680 364.400,346.400 364.220,346.400 364.000 C 346.400 363.780,346.940 363.600,347.600 363.600 C 348.260 363.600,348.800 363.420,348.800 363.200 C 348.800 362.980,349.160 362.800,349.600 362.800 C 350.040 362.800,350.400 362.620,350.400 362.400 C 350.400 362.180,350.760 362.000,351.200 362.000 C 351.640 362.000,352.000 361.820,352.000 361.600 C 352.000 361.380,352.360 361.200,352.800 361.200 C 353.240 361.200,353.600 361.020,353.600 360.800 C 353.600 360.580,353.870 360.400,354.200 360.400 C 354.530 360.400,354.800 360.220,354.800 360.000 C 354.800 359.780,355.023 359.600,355.296 359.600 C 355.973 359.600,362.800 352.474,362.800 351.767 C 362.800 351.455,362.980 351.200,363.200 351.200 C 363.420 351.200,363.600 350.840,363.600 350.400 C 363.600 349.960,363.780 349.600,364.000 349.600 C 364.220 349.600,364.400 349.240,364.400 348.800 C 364.400 348.360,364.580 348.000,364.800 348.000 C 365.020 348.000,365.200 347.640,365.200 347.200 C 365.200 346.760,365.380 346.400,365.600 346.400 C 365.820 346.400,366.000 345.860,366.000 345.200 C 366.000 344.540,366.180 344.000,366.400 344.000 C 366.620 344.000,366.800 343.381,366.800 342.624 C 366.800 341.867,366.980 341.136,367.200 341.000 C 367.438 340.853,367.600 338.337,367.600 334.800 C 367.600 331.263,367.438 328.747,367.200 328.600 C 366.980 328.464,366.800 327.733,366.800 326.976 C 366.800 326.219,366.620 325.600,366.400 325.600 C 366.180 325.600,366.000 325.060,366.000 324.400 C 366.000 323.740,365.820 323.200,365.600 323.200 C 365.380 323.200,365.200 322.840,365.200 322.400 C 365.200 321.960,365.020 321.600,364.800 321.600 C 364.580 321.600,364.400 321.240,364.400 320.800 C 364.400 320.360,364.220 320.000,364.000 320.000 C 363.780 320.000,363.600 319.655,363.600 319.233 C 363.600 318.812,363.395 318.398,363.146 318.315 C 362.617 318.139,363.367 316.611,364.500 315.557 C 364.885 315.199,365.200 314.652,365.200 314.341 C 365.200 314.031,365.560 313.517,366.000 313.200 C 366.440 312.883,366.800 312.343,366.800 312.000 C 366.800 311.657,367.160 311.117,367.600 310.800 C 368.040 310.483,368.400 309.943,368.400 309.600 C 368.400 309.257,368.760 308.717,369.200 308.400 C 369.640 308.083,370.000 307.671,370.000 307.484 C 370.000 307.297,370.540 306.359,371.200 305.400 C 371.860 304.441,372.400 303.463,372.400 303.228 C 372.400 302.993,372.580 302.800,372.800 302.800 C 373.020 302.800,373.200 302.603,373.200 302.362 C 373.200 302.121,373.548 301.435,373.973 300.837 C 374.399 300.240,374.878 299.228,375.039 298.589 C 375.199 297.950,375.661 297.072,376.065 296.638 C 376.469 296.204,376.800 295.613,376.800 295.325 C 376.800 295.036,376.980 294.800,377.200 294.800 C 377.420 294.800,377.600 294.440,377.600 294.000 C 377.600 293.560,377.780 293.200,378.000 293.200 C 378.220 293.200,378.400 292.840,378.400 292.400 C 378.400 291.960,378.546 291.600,378.725 291.600 C 378.904 291.600,379.298 290.970,379.600 290.200 C 379.902 289.430,380.296 288.800,380.475 288.800 C 380.654 288.800,380.800 288.440,380.800 288.000 C 380.800 287.560,380.980 287.200,381.200 287.200 C 381.420 287.200,381.600 286.840,381.600 286.400 C 381.600 285.960,381.780 285.600,382.000 285.600 C 382.220 285.600,382.400 285.251,382.400 284.824 C 382.400 284.397,382.580 283.936,382.800 283.800 C 383.020 283.664,383.200 283.113,383.200 282.576 C 383.200 282.039,383.380 281.600,383.600 281.600 C 383.820 281.600,384.000 281.240,384.000 280.800 C 384.000 280.360,384.180 280.000,384.400 280.000 C 384.620 280.000,384.800 279.640,384.800 279.200 C 384.800 278.760,384.980 278.400,385.200 278.400 C 385.420 278.400,385.600 277.860,385.600 277.200 C 385.600 276.540,385.780 276.000,386.000 276.000 C 386.220 276.000,386.400 275.640,386.400 275.200 C 386.400 274.760,386.580 274.400,386.800 274.400 C 387.020 274.400,387.200 274.045,387.200 273.612 C 387.200 273.179,387.560 272.183,388.000 271.400 C 388.440 270.617,388.800 269.632,388.800 269.211 C 388.800 268.791,388.980 268.336,389.200 268.200 C 389.420 268.064,389.600 267.524,389.600 267.000 C 389.600 266.476,389.780 265.936,390.000 265.800 C 390.220 265.664,390.400 265.124,390.400 264.600 C 390.400 264.076,390.567 263.544,390.772 263.417 C 390.977 263.291,391.267 262.200,391.418 260.994 C 391.569 259.787,391.851 258.800,392.046 258.800 C 392.241 258.800,392.400 258.260,392.400 257.600 C 392.400 256.940,392.580 256.400,392.800 256.400 C 393.020 256.400,393.200 255.770,393.200 255.000 C 393.200 254.230,393.380 253.600,393.600 253.600 C 393.820 253.600,394.000 252.880,394.000 252.000 C 394.000 251.120,394.180 250.400,394.400 250.400 C 394.620 250.400,394.800 249.680,394.800 248.800 C 394.800 247.920,394.980 247.200,395.200 247.200 C 395.420 247.200,395.600 246.491,395.600 245.624 C 395.600 244.757,395.780 243.936,396.000 243.800 C 396.220 243.664,396.400 242.854,396.400 242.000 C 396.400 241.146,396.580 240.336,396.800 240.200 C 397.020 240.064,397.200 239.074,397.200 238.000 C 397.200 236.926,397.380 235.936,397.600 235.800 C 397.820 235.664,398.000 234.584,398.000 233.400 C 398.000 232.216,398.180 231.136,398.400 231.000 C 398.620 230.864,398.800 229.518,398.800 228.010 C 398.800 226.171,398.965 225.212,399.300 225.100 C 400.032 224.856,400.032 175.144,399.300 174.900 C 398.965 174.788,398.800 173.829,398.800 171.990 C 398.800 170.482,398.620 169.136,398.400 169.000 C 398.180 168.864,398.000 167.773,398.000 166.576 C 398.000 165.379,397.820 164.400,397.600 164.400 C 397.380 164.400,397.200 163.410,397.200 162.200 C 397.200 160.990,397.020 160.000,396.800 160.000 C 396.580 160.000,396.400 159.201,396.400 158.224 C 396.400 157.247,396.220 156.336,396.000 156.200 C 395.780 156.064,395.600 155.243,395.600 154.376 C 395.600 153.509,395.420 152.800,395.200 152.800 C 394.980 152.800,394.800 152.080,394.800 151.200 C 394.800 150.320,394.620 149.600,394.400 149.600 C 394.180 149.600,394.000 148.981,394.000 148.224 C 394.000 147.467,393.820 146.736,393.600 146.600 C 393.380 146.464,393.200 145.823,393.200 145.176 C 393.200 144.529,393.020 144.000,392.800 144.000 C 392.580 144.000,392.400 143.370,392.400 142.600 C 392.400 141.830,392.220 141.200,392.000 141.200 C 391.780 141.200,391.600 140.771,391.600 140.246 C 391.600 139.294,390.591 135.538,390.030 134.400 C 389.868 134.070,389.485 132.945,389.180 131.900 C 388.875 130.855,388.485 130.000,388.313 130.000 C 388.141 130.000,388.000 129.561,388.000 129.024 C 388.000 128.487,387.820 127.936,387.600 127.800 C 387.380 127.664,387.200 127.113,387.200 126.576 C 387.200 126.039,387.020 125.600,386.800 125.600 C 386.580 125.600,386.400 125.240,386.400 124.800 C 386.400 124.360,386.220 124.000,386.000 124.000 C 385.780 124.000,385.600 123.561,385.600 123.024 C 385.600 122.487,385.420 121.936,385.200 121.800 C 384.980 121.664,384.800 121.203,384.800 120.776 C 384.800 120.349,384.620 120.000,384.400 120.000 C 384.180 120.000,384.000 119.640,384.000 119.200 C 384.000 118.760,383.820 118.400,383.600 118.400 C 383.380 118.400,383.200 118.128,383.200 117.795 C 383.200 117.462,382.992 116.787,382.738 116.295 C 381.767 114.418,381.600 113.993,381.600 113.405 C 381.600 113.072,381.465 112.799,381.300 112.799 C 381.135 112.798,380.550 111.808,380.000 110.600 C 379.450 109.392,378.865 108.402,378.700 108.401 C 378.535 108.401,378.400 108.040,378.400 107.600 C 378.400 107.160,378.220 106.800,378.000 106.800 C 377.780 106.800,377.600 106.522,377.600 106.183 C 377.600 105.844,377.240 105.180,376.800 104.708 C 376.360 104.236,376.000 103.613,376.000 103.325 C 376.000 103.036,375.843 102.800,375.650 102.800 C 375.457 102.800,375.189 102.245,375.053 101.566 C 374.918 100.888,374.445 99.825,374.003 99.205 C 373.561 98.584,373.200 97.879,373.200 97.638 C 373.200 97.397,373.020 97.200,372.800 97.200 C 372.580 97.200,372.400 97.007,372.400 96.772 C 372.400 96.537,371.860 95.559,371.200 94.600 C 370.540 93.641,370.000 92.703,370.000 92.516 C 370.000 92.329,369.640 91.917,369.200 91.600 C 368.760 91.283,368.400 90.743,368.400 90.400 C 368.400 90.057,368.040 89.517,367.600 89.200 C 367.160 88.883,366.800 88.385,366.800 88.094 C 366.800 87.363,364.974 85.600,364.218 85.600 C 363.878 85.600,363.600 85.420,363.600 85.200 C 363.600 84.980,363.251 84.800,362.824 84.800 C 362.397 84.800,361.936 84.620,361.800 84.400 C 361.664 84.180,360.663 84.000,359.576 84.000 C 358.489 84.000,357.600 84.180,357.600 84.400 M205.200 114.000 C 205.200 114.220,205.740 114.400,206.400 114.400 C 207.060 114.400,207.600 114.580,207.600 114.800 C 207.600 115.020,208.050 115.200,208.600 115.200 C 209.150 115.200,209.600 115.380,209.600 115.600 C 209.600 115.820,209.960 116.000,210.400 116.000 C 210.840 116.000,211.200 116.150,211.200 116.332 C 211.200 116.515,211.695 116.920,212.300 117.232 C 213.497 117.850,219.200 123.354,219.200 123.892 C 219.200 124.074,219.560 124.483,220.000 124.800 C 220.440 125.117,220.800 125.697,220.800 126.088 C 220.800 126.480,220.980 126.800,221.200 126.800 C 221.420 126.800,221.600 127.340,221.600 128.000 C 221.600 128.660,221.780 129.200,222.000 129.200 C 222.220 129.200,222.400 129.740,222.400 130.400 C 222.400 131.060,222.580 131.600,222.800 131.600 C 223.055 131.600,223.200 134.867,223.200 140.600 L 223.200 149.600 200.000 149.600 L 176.800 149.600 176.800 140.600 C 176.800 134.867,176.945 131.600,177.200 131.600 C 177.420 131.600,177.600 131.060,177.600 130.400 C 177.600 129.740,177.780 129.200,178.000 129.200 C 178.220 129.200,178.400 128.660,178.400 128.000 C 178.400 127.340,178.580 126.800,178.800 126.800 C 179.020 126.800,179.200 126.480,179.200 126.088 C 179.200 125.697,179.560 125.117,180.000 124.800 C 180.440 124.483,180.800 124.074,180.800 123.892 C 180.800 123.354,186.503 117.850,187.700 117.232 C 188.305 116.920,188.800 116.515,188.800 116.332 C 188.800 116.150,189.160 116.000,189.600 116.000 C 190.040 116.000,190.400 115.820,190.400 115.600 C 190.400 115.380,190.850 115.200,191.400 115.200 C 191.950 115.200,192.400 115.020,192.400 114.800 C 192.400 114.580,192.940 114.400,193.600 114.400 C 194.260 114.400,194.800 114.220,194.800 114.000 C 194.800 113.754,196.800 113.600,200.000 113.600 C 203.200 113.600,205.200 113.754,205.200 114.000 M266.742 167.387 C 268.989 168.631,271.434 171.098,272.351 173.048 C 272.649 173.681,273.052 174.513,273.247 174.895 C 273.446 175.286,273.600 199.385,273.600 230.183 L 273.600 284.776 272.613 286.888 C 270.968 290.408,268.476 292.656,264.685 294.042 C 262.683 294.774,260.455 294.800,200.000 294.800 C 139.545 294.800,137.317 294.774,135.315 294.042 C 131.797 292.756,128.987 290.362,127.757 287.600 C 127.414 286.830,126.968 285.887,126.766 285.505 C 126.289 284.600,126.276 175.833,126.753 174.895 C 126.948 174.513,127.343 173.697,127.631 173.081 C 128.971 170.223,132.748 167.099,135.733 166.381 C 136.430 166.213,165.710 166.104,200.800 166.138 L 264.600 166.200 266.742 167.387 M194.196 183.582 C 186.972 185.130,178.246 191.101,175.171 196.600 C 170.239 205.422,169.098 213.790,171.790 221.400 C 172.539 223.519,174.409 227.625,174.795 228.000 C 174.909 228.110,175.256 228.695,175.568 229.300 C 175.880 229.905,176.285 230.400,176.468 230.400 C 176.650 230.400,176.800 236.115,176.800 243.100 C 176.800 257.999,177.000 259.518,179.706 265.200 C 181.014 267.947,186.570 274.000,187.783 274.000 C 188.122 274.000,188.400 274.136,188.400 274.302 C 188.400 274.469,188.985 274.844,189.700 275.136 C 190.415 275.428,191.360 275.814,191.800 275.993 C 192.240 276.173,193.189 276.541,193.908 276.811 C 195.635 277.462,204.365 277.462,206.092 276.811 C 206.811 276.541,207.760 276.180,208.200 276.010 C 214.178 273.702,219.466 268.411,221.496 262.708 C 222.985 258.526,223.172 256.382,223.186 243.300 C 223.194 236.205,223.350 230.400,223.532 230.400 C 223.715 230.400,224.120 229.905,224.432 229.300 C 224.744 228.695,225.097 228.110,225.218 228.000 C 227.060 226.321,229.600 217.396,229.600 212.600 C 229.600 207.636,226.772 197.969,225.115 197.267 C 224.942 197.193,224.800 196.923,224.800 196.667 C 224.798 195.387,218.335 189.029,215.200 187.224 C 209.328 183.843,200.291 182.276,194.196 183.582 M204.580 198.829 C 204.789 199.033,205.209 199.200,205.514 199.200 C 205.819 199.200,206.998 199.850,208.134 200.644 C 215.488 205.786,216.585 215.164,210.683 222.445 C 207.984 225.775,208.000 225.659,208.000 241.981 L 208.000 256.643 206.848 258.461 C 203.377 263.933,196.125 263.739,192.959 258.089 L 192.000 256.379 192.000 241.608 C 192.000 225.498,192.040 225.811,189.579 222.791 C 181.757 213.190,185.839 200.997,197.800 198.236 C 199.008 197.957,204.147 198.407,204.580 198.829 M343.524 321.917 C 358.030 328.997,350.991 352.015,335.201 349.130 C 330.329 348.239,324.000 343.255,324.000 340.308 C 324.000 340.007,323.804 339.564,323.564 339.324 C 323.018 338.778,322.979 331.591,323.517 330.553 C 323.731 330.139,324.153 329.263,324.453 328.606 C 325.669 325.949,328.103 323.440,330.700 322.164 C 334.857 320.122,339.659 320.030,343.524 321.917 " stroke="none" fill="#040404" fill-rule="evenodd"></path><path id="path4" d="M58.120 51.545 C 52.135 53.613,48.423 58.836,48.416 65.200 C 48.414 66.850,48.544 68.408,48.706 68.662 C 48.868 68.916,49.007 67.386,49.016 65.262 C 49.084 48.527,73.147 46.049,76.368 62.444 L 76.712 64.200 76.756 62.524 C 76.780 61.602,76.620 60.736,76.400 60.600 C 76.180 60.464,75.997 60.048,75.993 59.676 C 75.981 58.549,72.732 54.543,70.808 53.283 C 66.976 50.775,62.231 50.124,58.120 51.545 M76.650 65.650 C 76.513 66.338,76.400 67.283,76.400 67.750 C 76.399 70.746,72.330 75.884,68.409 77.840 C 62.792 80.643,54.464 78.281,51.170 72.951 C 50.696 72.185,50.214 71.652,50.099 71.768 C 49.983 71.884,50.402 72.658,51.030 73.489 C 59.025 84.073,75.494 79.760,76.951 66.700 C 77.227 64.219,77.056 63.621,76.650 65.650 M192.200 80.811 C 191.695 81.035,192.434 81.078,194.200 80.928 C 195.740 80.798,197.075 80.625,197.167 80.545 C 197.525 80.233,192.953 80.477,192.200 80.811 M202.833 80.545 C 202.925 80.625,204.260 80.798,205.800 80.928 C 207.566 81.078,208.305 81.035,207.800 80.811 C 207.047 80.477,202.475 80.233,202.833 80.545 M187.600 81.600 C 186.808 81.854,186.767 81.920,187.400 81.920 C 187.840 81.920,188.650 81.776,189.200 81.600 C 189.992 81.346,190.033 81.280,189.400 81.280 C 188.960 81.280,188.150 81.424,187.600 81.600 M210.800 81.600 C 211.350 81.776,212.160 81.926,212.600 81.932 L 213.400 81.944 212.600 81.600 C 212.160 81.411,211.350 81.262,210.800 81.268 L 209.800 81.280 210.800 81.600 M184.600 82.400 C 184.096 82.617,184.022 82.744,184.400 82.744 C 184.730 82.744,185.360 82.589,185.800 82.400 C 186.304 82.183,186.378 82.056,186.000 82.056 C 185.670 82.056,185.040 82.211,184.600 82.400 M214.200 82.400 C 214.640 82.589,215.270 82.744,215.600 82.744 C 215.978 82.744,215.904 82.617,215.400 82.400 C 214.960 82.211,214.330 82.056,214.000 82.056 C 213.622 82.056,213.696 82.183,214.200 82.400 M179.701 83.987 C 175.442 85.662,171.512 87.722,168.122 90.053 C 165.011 92.194,165.907 92.043,169.270 89.859 C 173.472 87.131,175.688 85.990,180.200 84.232 C 182.180 83.461,183.530 82.833,183.200 82.838 C 182.870 82.843,181.296 83.360,179.701 83.987 M218.200 83.618 C 219.300 84.048,220.377 84.341,220.593 84.269 C 221.013 84.129,217.346 82.787,216.629 82.819 C 216.393 82.829,217.100 83.189,218.200 83.618 M221.400 84.800 C 221.536 85.020,221.841 85.200,222.077 85.200 C 222.817 85.200,228.070 87.995,231.100 90.001 C 232.695 91.057,233.998 91.804,233.995 91.661 C 233.986 91.217,228.368 87.719,224.933 86.018 C 221.506 84.320,220.995 84.144,221.400 84.800 M159.563 97.526 C 157.494 99.685,155.522 101.804,155.182 102.235 C 153.313 104.603,149.736 110.400,150.144 110.400 C 150.266 110.400,151.087 109.164,151.969 107.653 C 154.017 104.147,156.490 101.047,160.551 96.900 C 162.328 95.085,163.680 93.600,163.555 93.600 C 163.429 93.600,161.633 95.367,159.563 97.526 M239.984 97.400 C 242.065 99.600,244.026 101.670,244.342 102.000 C 244.739 102.413,244.721 102.303,244.286 101.649 C 243.553 100.547,240.009 96.830,237.756 94.800 C 236.901 94.030,237.904 95.200,239.984 97.400 M193.800 97.600 L 192.200 97.886 193.800 97.904 C 194.680 97.913,196.390 97.784,197.600 97.617 L 199.800 97.313 197.600 97.313 C 196.390 97.313,194.680 97.442,193.800 97.600 M202.600 97.618 C 203.700 97.790,205.320 97.923,206.200 97.915 L 207.800 97.900 206.000 97.580 C 205.010 97.403,203.390 97.270,202.400 97.283 L 200.600 97.307 202.600 97.618 M190.200 98.276 C 187.119 98.983,180.506 101.878,178.600 103.355 C 177.461 104.237,178.264 104.150,179.538 103.252 C 181.914 101.579,188.572 98.808,190.248 98.794 C 190.662 98.791,191.270 98.613,191.600 98.400 C 192.278 97.962,191.768 97.917,190.200 98.276 M209.200 98.463 C 213.742 99.872,215.754 100.667,218.800 102.257 C 220.670 103.233,221.840 103.740,221.400 103.383 C 219.304 101.684,212.276 98.726,209.200 98.247 L 207.800 98.029 209.200 98.463 M246.947 105.957 C 249.985 110.629,250.105 110.797,249.565 109.600 C 248.902 108.133,245.442 102.811,245.147 102.805 C 245.008 102.802,245.818 104.221,246.947 105.957 M175.985 105.218 L 174.600 106.435 176.095 105.518 C 176.917 105.013,177.592 104.465,177.595 104.300 C 177.603 103.837,177.469 103.913,175.985 105.218 M222.540 104.303 C 222.696 104.556,223.391 105.167,224.084 105.660 C 224.777 106.154,225.217 106.350,225.060 106.097 C 224.904 105.844,224.209 105.233,223.516 104.740 C 222.823 104.246,222.383 104.050,222.540 104.303 M225.600 106.521 C 225.600 106.924,230.017 111.317,230.219 111.115 C 230.307 111.027,229.304 109.890,227.990 108.590 C 226.675 107.289,225.600 106.358,225.600 106.521 M171.793 108.807 C 170.937 109.683,170.370 110.400,170.532 110.400 C 170.940 110.400,173.719 107.586,173.514 107.381 C 173.423 107.289,172.648 107.931,171.793 108.807 M148.678 113.020 C 148.085 114.229,147.608 115.439,147.618 115.709 C 147.628 115.979,148.170 115.047,148.822 113.637 C 150.280 110.485,150.164 109.990,148.678 113.020 M168.197 113.100 C 166.271 115.543,162.622 122.593,162.246 124.600 C 162.008 125.871,162.346 125.298,163.190 123.000 C 164.080 120.574,166.843 115.527,168.486 113.327 C 170.844 110.168,170.638 110.006,168.197 113.100 M250.072 111.100 C 250.148 111.265,250.637 112.350,251.159 113.512 C 251.682 114.674,252.183 115.551,252.272 115.461 C 252.462 115.271,250.398 110.800,250.120 110.800 C 250.017 110.800,249.996 110.935,250.072 111.100 M231.268 112.952 C 231.781 113.743,232.347 114.392,232.527 114.395 C 232.899 114.401,231.382 112.159,230.749 111.769 C 230.522 111.628,230.755 112.160,231.268 112.952 M234.540 118.000 C 235.508 119.870,236.704 122.660,237.199 124.200 C 238.374 127.860,238.854 128.997,238.550 127.400 C 237.941 124.215,235.032 117.405,233.424 115.400 C 233.070 114.960,233.573 116.130,234.540 118.000 M253.212 118.400 C 253.212 118.730,253.387 119.270,253.600 119.600 C 253.945 120.133,253.988 120.133,253.988 119.600 C 253.988 119.270,253.813 118.730,253.600 118.400 C 253.255 117.867,253.212 117.867,253.212 118.400 M254.012 121.200 C 254.012 121.530,254.187 122.070,254.400 122.400 C 254.745 122.933,254.788 122.933,254.788 122.400 C 254.788 122.070,254.613 121.530,254.400 121.200 C 254.055 120.667,254.012 120.667,254.012 121.200 M145.467 121.467 C 145.320 121.613,145.211 122.108,145.225 122.567 C 145.249 123.333,145.282 123.323,145.634 122.442 C 146.026 121.463,145.944 120.989,145.467 121.467 M144.649 124.615 C 144.512 124.973,144.416 125.656,144.436 126.133 C 144.462 126.747,144.585 126.608,144.859 125.656 C 145.257 124.272,145.094 123.458,144.649 124.615 M254.846 124.400 C 254.865 124.730,255.024 125.450,255.200 126.000 L 255.520 127.000 255.554 126.000 C 255.573 125.450,255.413 124.730,255.200 124.400 C 254.855 123.867,254.816 123.867,254.846 124.400 M161.654 126.467 C 161.625 126.834,161.484 127.464,161.341 127.867 C 161.141 128.433,161.195 128.496,161.575 128.146 C 161.846 127.897,161.987 127.267,161.888 126.746 C 161.790 126.226,161.684 126.100,161.654 126.467 M255.857 130.200 C 255.991 131.520,256.168 132.675,256.250 132.767 C 256.569 133.121,256.324 129.356,255.979 128.600 C 255.738 128.072,255.696 128.616,255.857 130.200 M143.849 129.015 C 143.712 129.373,143.622 130.506,143.649 131.533 L 143.698 133.400 144.043 131.028 C 144.391 128.641,144.312 127.811,143.849 129.015 M238.873 130.000 C 238.858 130.770,238.995 132.120,239.177 133.000 C 239.636 135.221,239.674 132.950,239.220 130.400 C 238.922 128.722,238.898 128.695,238.873 130.000 M160.616 131.525 C 160.451 132.913,160.410 134.143,160.525 134.258 C 160.806 134.539,161.335 130.197,161.101 129.528 C 161.000 129.238,160.782 130.136,160.616 131.525 M239.786 144.200 L 239.800 151.000 247.771 151.109 C 252.156 151.168,255.882 151.078,256.052 150.909 C 256.222 150.739,252.685 150.652,248.190 150.716 L 240.019 150.831 239.895 144.116 L 239.772 137.400 239.786 144.200 M143.763 150.490 C 143.843 150.883,145.729 151.000,152.000 151.000 C 158.271 151.000,160.157 150.883,160.237 150.490 C 160.294 150.210,160.249 150.165,160.137 150.390 C 160.008 150.649,157.019 150.800,152.000 150.800 C 146.981 150.800,143.992 150.649,143.863 150.390 C 143.751 150.165,143.707 150.210,143.763 150.490 M135.733 166.381 C 132.748 167.099,128.971 170.223,127.631 173.081 C 127.343 173.697,126.948 174.513,126.753 174.895 C 126.276 175.833,126.289 284.600,126.766 285.505 C 126.968 285.887,127.414 286.830,127.757 287.600 C 128.987 290.362,131.797 292.756,135.315 294.042 C 137.317 294.774,139.545 294.800,200.000 294.800 C 260.455 294.800,262.683 294.774,264.685 294.042 C 268.476 292.656,270.968 290.408,272.613 286.888 L 273.600 284.776 273.600 230.183 C 273.600 199.385,273.446 175.286,273.247 174.895 C 273.052 174.513,272.649 173.681,272.351 173.048 C 271.434 171.098,268.989 168.631,266.742 167.387 L 264.600 166.200 200.800 166.138 C 165.710 166.104,136.430 166.213,135.733 166.381 M265.082 167.265 C 268.324 168.478,271.694 171.874,272.564 174.805 C 273.635 178.410,273.520 283.148,272.443 285.984 C 270.879 290.099,267.790 292.749,263.305 293.821 C 259.816 294.654,140.113 294.637,136.616 293.802 C 132.229 292.755,128.788 289.602,127.272 285.240 C 126.918 284.221,126.800 270.472,126.800 230.355 L 126.800 176.830 127.662 174.527 C 128.796 171.496,131.822 168.429,134.814 167.281 C 137.000 166.442,137.005 166.442,199.885 166.421 L 262.770 166.400 265.082 167.265 M196.600 182.837 C 175.004 184.645,162.696 210.725,174.872 228.878 L 176.400 231.156 176.400 243.878 C 176.400 261.413,177.308 264.946,183.370 271.008 C 186.022 273.660,186.769 274.191,190.400 276.003 C 200.891 281.236,215.660 276.012,220.957 265.195 C 223.414 260.176,223.570 258.938,223.586 244.328 L 223.600 231.257 225.126 228.928 C 234.839 214.110,229.475 193.851,213.765 186.023 C 207.393 182.848,203.998 182.218,196.600 182.837 M208.793 184.379 C 215.295 186.615,218.518 188.914,223.900 195.157 C 224.394 195.731,224.799 196.410,224.800 196.667 C 224.800 196.923,224.942 197.193,225.115 197.267 C 226.772 197.969,229.600 207.636,229.600 212.600 C 229.600 217.396,227.060 226.321,225.218 228.000 C 225.097 228.110,224.744 228.695,224.432 229.300 C 224.120 229.905,223.715 230.400,223.532 230.400 C 223.350 230.400,223.194 236.205,223.186 243.300 C 223.172 256.382,222.985 258.526,221.496 262.708 C 219.466 268.411,214.178 273.702,208.200 276.010 C 207.760 276.180,206.811 276.541,206.092 276.811 C 204.365 277.462,195.635 277.462,193.908 276.811 C 193.189 276.541,192.240 276.173,191.800 275.993 C 191.360 275.814,190.415 275.428,189.700 275.136 C 188.985 274.844,188.400 274.469,188.400 274.302 C 188.400 274.136,188.122 274.000,187.783 274.000 C 186.570 274.000,181.014 267.947,179.706 265.200 C 177.000 259.518,176.800 257.999,176.800 243.100 C 176.800 236.115,176.650 230.400,176.468 230.400 C 176.285 230.400,175.880 229.905,175.568 229.300 C 175.256 228.695,174.909 228.110,174.795 228.000 C 174.682 227.890,174.164 226.900,173.644 225.800 C 168.838 215.631,169.282 207.134,175.171 196.600 C 180.857 186.430,197.337 180.440,208.793 184.379 M199.100 198.282 C 199.595 198.378,200.405 198.378,200.900 198.282 C 201.395 198.187,200.990 198.109,200.000 198.109 C 199.010 198.109,198.605 198.187,199.100 198.282 M194.997 198.948 C 185.289 202.598,182.637 214.269,189.579 222.791 C 192.040 225.811,192.000 225.498,192.000 241.608 L 192.000 256.379 192.959 258.089 C 196.125 263.739,203.377 263.933,206.848 258.461 L 208.000 256.643 208.000 241.981 C 208.000 225.659,207.984 225.775,210.683 222.445 C 216.585 215.164,215.488 205.786,208.134 200.644 C 206.998 199.850,205.794 199.200,205.458 199.200 C 205.122 199.200,204.736 199.020,204.600 198.800 C 204.464 198.580,203.778 198.410,203.076 198.422 C 201.975 198.440,202.107 198.541,204.036 199.159 C 213.956 202.332,217.105 213.259,210.562 221.800 C 207.486 225.816,207.600 225.063,207.600 241.338 C 207.600 253.339,207.496 256.140,207.007 257.251 C 204.880 262.085,199.154 263.492,195.241 260.142 C 192.396 257.708,192.400 257.731,192.400 241.131 C 192.400 224.605,192.572 225.699,189.329 221.558 C 182.951 213.414,186.098 202.588,195.814 199.247 C 197.127 198.796,197.750 198.442,197.200 198.461 C 196.650 198.480,195.659 198.699,194.997 198.948 M336.705 320.683 C 337.202 320.779,337.922 320.775,338.305 320.675 C 338.687 320.575,338.280 320.496,337.400 320.501 C 336.520 320.505,336.207 320.587,336.705 320.683 M332.100 321.434 C 330.304 322.219,330.461 322.523,332.300 321.821 C 333.125 321.506,334.160 321.168,334.600 321.070 C 335.224 320.932,335.180 320.890,334.400 320.879 C 333.850 320.871,332.815 321.121,332.100 321.434 M340.437 321.173 C 342.616 321.599,345.180 323.060,347.388 325.133 C 348.481 326.160,349.021 326.553,348.588 326.006 C 346.437 323.293,342.279 320.758,340.125 320.846 C 339.127 320.887,339.162 320.924,340.437 321.173 M328.515 323.422 C 327.808 323.979,326.848 325.012,326.382 325.717 L 325.534 327.000 326.467 325.929 C 326.980 325.340,328.100 324.305,328.955 323.629 C 329.810 322.953,330.350 322.402,330.155 322.404 C 329.960 322.407,329.222 322.865,328.515 323.422 M349.878 328.595 C 350.244 329.362,350.614 329.919,350.701 329.832 C 350.884 329.649,349.670 327.200,349.396 327.200 C 349.295 327.200,349.512 327.828,349.878 328.595 M323.354 330.977 C 323.232 331.294,323.203 331.879,323.289 332.277 C 323.387 332.728,323.524 332.512,323.654 331.700 C 323.871 330.338,323.730 329.996,323.354 330.977 M350.856 331.000 C 350.856 331.440,351.011 332.160,351.200 332.600 L 351.544 333.400 351.544 332.600 C 351.544 332.160,351.389 331.440,351.200 331.000 L 350.856 330.200 350.856 331.000 M350.921 338.100 C 350.693 339.035,350.381 340.160,350.228 340.600 C 350.058 341.087,350.180 341.005,350.539 340.392 C 351.124 339.393,351.853 336.400,351.512 336.400 C 351.414 336.400,351.148 337.165,350.921 338.100 M323.200 337.910 C 323.200 338.593,323.377 339.262,323.594 339.396 C 323.840 339.548,323.894 339.145,323.737 338.320 C 323.400 336.551,323.200 336.399,323.200 337.910 M324.078 340.492 C 324.430 342.484,329.862 348.000,331.471 348.000 C 331.646 348.000,330.892 347.391,329.795 346.647 C 327.382 345.010,326.388 343.963,325.007 341.600 C 324.429 340.610,324.010 340.111,324.078 340.492 M348.446 343.396 C 346.440 346.189,343.832 347.728,339.000 348.968 C 338.560 349.081,338.975 349.086,339.922 348.979 C 343.254 348.601,347.643 345.737,349.323 342.844 C 350.366 341.047,349.940 341.316,348.446 343.396 M332.438 348.398 C 332.790 348.603,333.870 348.867,334.838 348.985 C 336.504 349.187,336.481 349.167,334.400 348.616 C 331.799 347.928,331.596 347.905,332.438 348.398 " stroke="none" fill="#4d393a" fill-rule="evenodd"></path></g></svg>
