<?xml version="1.0" encoding="utf-8"?>
<!-- Generator: Adobe Illustrator 24.2.3, SVG Export Plug-In . SVG Version: 6.00 Build 0)  -->
<svg version="1.1" id="Layer_1" xmlns="http://www.w3.org/2000/svg" xmlns:xlink="http://www.w3.org/1999/xlink" x="0px" y="0px"
	 viewBox="0 0 1390 855.8" style="enable-background:new 0 0 1390 855.8;" xml:space="preserve">
<style type="text/css">
	.st0{fill:#E3E5FF;}
	.st1{fill:#FFFFFF;}
	.st2{fill:#E6E6E6;}
	.st3{fill:#46A6F7;}
	.st4{fill:none;stroke:#FFFFFF;stroke-miterlimit:10;}
	.st5{fill:none;stroke:#B3B3B3;stroke-miterlimit:10;}
	.st6{fill:none;stroke:#B3B3B3;stroke-miterlimit:10;stroke-dasharray:7.01,7.01;}
	.st7{fill:#FFA320;}
	.st8{fill:#EB4334;}
	.st9{fill:#3943B3;}
	.st10{fill:#FFC69A;}
	.st11{fill:#DAA184;}
	.st12{fill:#2CBCE3;}
	.st13{fill:#30D475;}
	.st14{fill:#411809;}
	.st15{fill:#30B875;}
	.st16{fill:#FFB780;}
	.st17{opacity:0.1;}
	.st18{fill:none;stroke:#3943B3;stroke-width:2;stroke-miterlimit:10;}
	.st19{fill:none;stroke:#3943B3;stroke-width:2;stroke-linecap:round;stroke-miterlimit:10;}
	.st20{fill:none;stroke:#3943B3;stroke-linecap:round;stroke-miterlimit:10;}
	.st21{fill:none;stroke:#3943B3;stroke-miterlimit:10;}
	.st22{fill:#FFB939;}
</style>
<path class="st0" d="M191.2,90.6C351.8-37.7,559.6,7.2,568.3,9.2c131.3,30.5,125.4,99,268.7,150.4c209,75,318.9-36,438.7,49.3
	c93.7,66.6,132.9,210,106,318c-49.8,199.7-335.6,315.6-552.1,288.4c-206.7-26-261.2-171.3-490.5-167.6
	C190.8,650,140.2,712,82.7,672.3C-27.6,596.1-10,251.2,191.2,90.6z"/>
<path class="st1" d="M238.3,131.9h925.5c5.3,0,9.6,4.3,9.6,9.6v619.3c0,5.3-4.3,9.6-9.6,9.6H238.3c-5.3,0-9.6-4.3-9.6-9.6V141.5
	C228.7,136.2,233,131.9,238.3,131.9z"/>
<path class="st2" d="M1136.9,134.1H271.2c-22.5-0.9-41.2,14.5-40.5,40.6v14.2l940.8-0.9v-16.1
	C1171.4,151.9,1155.7,134.1,1136.9,134.1z"/>
<path class="st3" d="M308.5,474.6h328.2c1.3,0,2.3,1,2.3,2.3v113.2c0,1.3-1,2.3-2.3,2.3H308.5c-1.3,0-2.3-1-2.3-2.3V477
	C306.1,475.7,307.2,474.6,308.5,474.6z"/>
<path class="st1" d="M404.9,535.3c0,17.7-14.3,32-32,32s-32-14.3-32-32s14.3-32,32-32S404.9,517.6,404.9,535.3z"/>
<line class="st4" x1="431.9" y1="538.6" x2="600.3" y2="538.6"/>
<line class="st4" x1="431.9" y1="516.8" x2="512.6" y2="516.8"/>
<line class="st4" x1="431.9" y1="558.8" x2="600.3" y2="558.8"/>
<path class="st3" d="M1120.5,258.3v-16.1c0-10.1-8.2-18.3-18.3-18.3H751.7c-8.9,0-16.3,6.3-18,14.7c-0.2,1.2-0.4,2.4-0.4,3.7v157
	L1120.5,258.3z"/>
<rect x="831" y="234.6" transform="matrix(0.9286 -0.371 0.371 0.9286 -52.9966 343.5406)" class="st3" width="70.7" height="149.8"/>
<polyline class="st3" points="733.4,227.7 735.4,224.7 740.7,223.8 746.5,223.9 749.3,223.9 747.3,226.3 733.7,238.9 "/>
<polyline class="st3" points="1120.5,227.8 1118.5,224.7 1113.2,223.9 1107.4,223.9 1104.5,223.9 1106.6,226.3 1120.2,238.9 "/>
<path class="st5" d="M738.6,223.8h376.7c2.9,0,5.2,2.3,5.2,5.2v440.3c0,2.9-2.3,5.2-5.2,5.2H738.6c-2.9,0-5.2-2.3-5.2-5.2V229.1
	C733.4,226.2,735.7,223.8,738.6,223.8z"/>
<rect x="806.9" y="285.5" transform="matrix(0.9286 -0.371 0.371 0.9286 -73.5839 338.2503)" class="st3" width="70.7" height="149.8"/>
<rect x="769.8" y="341.2" transform="matrix(0.9286 -0.371 0.371 0.9286 -82.234 325.6228)" class="st3" width="70.7" height="70.7"/>
<rect x="1027" y="253.4" transform="matrix(0.9286 -0.371 0.371 0.9286 -36.854 415.8438)" class="st3" width="70.7" height="100.6"/>
<rect x="307.2" y="223.8" class="st2" width="331.8" height="48.2"/>
<rect x="307.2" y="622.8" class="st2" width="331.8" height="18.6"/>
<rect x="307.2" y="657.4" class="st2" width="331.8" height="18.6"/>
<path class="st6" d="M308.5,326.4h328.2c1.3,0,2.3,1,2.3,2.3V442c0,1.3-1,2.3-2.3,2.3H308.5c-1.3,0-2.3-1-2.3-2.3V328.8
	C306.1,327.5,307.2,326.4,308.5,326.4z"/>
<circle class="st7" cx="1088.3" cy="163.9" r="7.7"/>
<circle class="st8" cx="1114" cy="163.9" r="7.7"/>
<circle class="st9" cx="1139.8" cy="163.9" r="7.7"/>
<path class="st1" d="M1046.3,176.6H268.7c-8.4,0-15.1-6.8-15.1-15.1c0,0,0,0,0,0l0,0c0-8.4,6.8-15.1,15.1-15.1h777.6
	c8.4,0,15.1,6.8,15.2,15.1l0,0C1061.4,169.8,1054.7,176.6,1046.3,176.6L1046.3,176.6z"/>
<path class="st5" d="M238.3,131.9h925.5c5.3,0,9.6,4.3,9.6,9.6v619.3c0,5.3-4.3,9.6-9.6,9.6H238.3c-5.3,0-9.6-4.3-9.6-9.6V141.5
	C228.7,136.2,233,131.9,238.3,131.9z"/>
<path class="st3" d="M183.9,326.4h328.2c1.3,0,2.3,1,2.3,2.3V442c0,1.3-1,2.3-2.3,2.3H183.9c-1.3,0-2.3-1-2.3-2.3V328.8
	C181.5,327.5,182.6,326.4,183.9,326.4z"/>
<path class="st1" d="M280.3,387c0,17.7-14.3,32-32,32c-17.7,0-32-14.3-32-32c0-17.7,14.3-32,32-32C266,355,280.3,369.4,280.3,387z"
	/>
<line class="st4" x1="307.2" y1="390.4" x2="475.7" y2="390.4"/>
<line class="st4" x1="307.2" y1="368.6" x2="387.9" y2="368.6"/>
<line class="st4" x1="307.2" y1="410.6" x2="475.7" y2="410.6"/>
<path d="M146.2,818.4c0,0,20.9,5.9,31.1,11.6c8.2,4.6,9.2,8.4-0.9,8.4c-13,0-28.4-0.2-37.6-1.7c-6.3-1-3.7-15.7-2.6-18.2
	L146.2,818.4z"/>
<polygon class="st10" points="144.4,818.5 146.5,810.3 135.7,811.6 136.2,818.6 "/>
<path class="st3" d="M183.6,836.5c-11.3-0.4-34.9-1.4-41.1-2.8c-2.9-0.6-5.6-2-7.8-4c0.2,3.5,1.2,6.6,4,7c9.2,1.4,24.7,1.7,37.6,1.7
	C180.8,838.4,183.1,837.7,183.6,836.5z"/>
<path class="st11" d="M96.8,535.3c0,0-2.6-12.3,19.3-28.6s33.7-28.2,33.7-28.2l20.7-71.8l7.2,3.4c0,0,0.5,56.4-2.7,73.1
	S102.5,572.4,96.8,535.3z"/>
<path class="st3" d="M153.6,460.7l23.5,3.4l-0.9,19.7c0,0-34.4,53.7-56.8,62.2s-35.8-4.6-30.4-14s57-53,57-53L153.6,460.7z"/>
<rect x="155.7" y="445.8" transform="matrix(0.1595 -0.9872 0.9872 0.1595 -318.23 546.1657)" class="st12" width="11.8" height="28.3"/>
<path class="st11" d="M177.7,426.4c0,0-13.6-33.3-9.6-37.1c0,0,12.7,21.4,16.6,30.5"/>
<path d="M17.2,798c0,0,14.7,16,20.4,26.2c4.6,8.2,3.5,12-5.2,6.7c-11.1-6.8-24-15.1-31.2-21.1c-4.8-4.1,5.1-15.3,7.3-16.9L17.2,798z
	"/>
<polygon class="st10" points="15.6,797.1 21.7,791.3 11.8,786.7 8.6,792.9 "/>
<path class="st13" d="M139.4,619.1l-42.9-23.9c0,0,7.2,90.4,34.6,130.3c0,0,0.2,72.7,5,88.4l10-0.2c0,0,15.3-82.7,13.9-95.9
	C157.4,693.6,154.8,658.6,139.4,619.1z"/>
<path class="st14" d="M93.9,452.6c0,0-17.1,8.4-18.5,40s-6.8,32.8-6.8,32.8s23.2,13.5,49.2,0L93.9,452.6z"/>
<path class="st10" d="M114.6,455.6c6.9,6.3,10.2,16.5,10.6,26.2c0.4,10.5-15.7,11.9-24.8,6.8c-8.1-4.5-13.8-14.6-12.3-23.3
	C90.1,454.1,105.4,447.2,114.6,455.6z"/>
<path class="st10" d="M105.2,468.4L88.3,471l6.4,40.8c0.9,5.9,6.3,9.9,12.2,9c0,0,0,0,0,0l0,0c5.9-0.9,9.9-6.4,9-12.3
	c-0.1-0.4-0.1-0.7-0.2-1.1L105.2,468.4z"/>
<path class="st14" d="M107,453.4c0,0,4.2,22.9-18.7,28.5c-16,3.9-15.5-35.9,7-36.7c31.7-1.2,24.6,17.1,24.6,17.1
	S112.3,451.1,107,453.4z"/>
<polygon class="st11" points="112.2,494.7 99.4,489 111.3,491.2 "/>
<path class="st13" d="M131.3,600.4l-52.2,13.9c0,0-14.7,19.9-9.3,97.5c0,0-45.6,38.3-58.3,75.7l8.4,5.5c0,0,64.2-57.4,73.2-67.1
	C104,714.2,124.9,675.3,131.3,600.4z"/>
<path class="st3" d="M125.8,511.5c-1.1-4.7-4.4-8.5-8.9-10.1c-9.7-3.5-33.2-3.7-33.4,28c-0.4,62.5-4.4,84.8-4.4,84.8
	s12.5,10.9,60.3,4.9l-6.3-39.5l5.6-12.1c3.6-9.6,3.2-20.3-1-29.6L125.8,511.5z"/>
<path class="st10" d="M106.3,537.9c0,0-2.6-12.3,19.3-28.6s33.7-28.2,33.7-28.2l20.7-71.9l7.2,3.4c0,0,0.5,56.3-2.7,73.1
	S112,574.9,106.3,537.9z"/>
<path class="st10" d="M178.4,415.9c0,0-4.8-20.2-0.8-24.1c0,0,3.9,8.4,7.8,17.5c1.2,2.8,13.5,11.7,7.1,10.7
	C187.7,419.1,182.9,417.7,178.4,415.9z"/>
<path class="st10" d="M117.8,459.5c0,0,5.2,5.4,9.3,6.4c-0.6,2.3-2,4.2-4,5.5L117.8,459.5z"/>
<path class="st3" d="M39.6,833c-9.4-6.2-29-19.4-33.5-23.9c-2.1-2.1-3.7-4.6-4.5-7.5c-1.7,3.1-2.4,6.3-0.3,8.1
	c7.1,6.1,20.1,14.4,31.2,21.1C36.2,833.2,38.6,833.8,39.6,833z"/>
<path class="st10" d="M9.4,793.4c0,0,11.4,19.7,16.5,14.6l-8.4-12.6L9.4,793.4z"/>
<path class="st10" d="M137.4,818.2c0,0,20,11.2,21.4,4.2l-14-5.9L137.4,818.2z"/>
<path class="st3" d="M164.9,461.6l21.5,3.9l-1.3,24.8c0,0-31.9,48-54.3,56.5s-35.8-4.6-30.4-14s57-53,57-53L164.9,461.6z"/>
<rect x="170.1" y="448.1" transform="matrix(0.1559 -0.9878 0.9878 0.1559 -308.0634 563.9678)" class="st12" width="11.8" height="28.2"/>
<path class="st13" d="M139.4,619.1l5.6,15.8l-36.1,39.8l3.4-53.7C121.3,621,130.4,620.4,139.4,619.1z"/>
<path class="st13" d="M97.5,705.9c-7.4,7.6-9.7,11-10.7,15.5c-0.9,3.6,0.1,4.1-1,6.3c-2.8,6-10.6,4.8-20.2,9.2
	c-7,3.2-11.6,8.3-20.8,18.6c-4.6,5.1-4.2,5.4-11.7,14.8c-8.9,11.2-14.3,16.9-16.8,20.3l3.6,2.3c0,0,64.2-57.4,73.2-67.1
	c4.9-5.2,11.7-16,18.4-32.9C110.3,692.6,106,697.1,97.5,705.9z"/>
<rect x="132.3" y="807.8" class="st15" width="16.8" height="6.7"/>
<rect x="12.4" y="780.7" transform="matrix(0.5 -0.866 0.866 0.5 -675.4942 408.172)" class="st15" width="6.7" height="16.8"/>
<path class="st13" d="M74.7,478.1l38.5-30.4c-8.4-10.6-23.8-12.4-34.5-4C68.1,452,66.3,467.4,74.7,478.1"/>
<path class="st15" d="M87,439.3c-13,3.8-20.4,17.5-16.6,30.5c0.9,3,2.3,5.8,4.3,8.3l10-7.9C78.1,460.6,79,447.7,87,439.3z"/>
<rect x="68.6" y="456.9" transform="matrix(0.8016 -0.5979 0.5979 0.8016 -256.0227 149.3949)" class="st15" width="56.9" height="7"/>
<path class="st13" d="M138.6,567.5c3-8.1,3.2-17,0.6-25.3c-14.5,5.3-27,4.2-36.4,1.3c-7.9-28.2,4.5-40.8,7.7-43.5
	c-3.3-0.4-6.7-0.1-10,0.7c-4.9,7.1-10,19.8-5.8,39.7c-4.1-2-8-4.5-11.4-7.5l0,0c-0.5,59.9-5.8,84.1-5.8,84.1s14,8.2,61.8,2.1
	l-6.3-39.5L138.6,567.5z"/>
<path class="st15" d="M160,717.8c-2.6-24.2-5.2-59.2-20.6-98.7l-6.3-39.5l5.6-12.1c3-8.1,3.2-17,0.6-25.3c-2.4,0.9-4.8,1.6-7.2,2.1
	c0.7,7,1,16.2-3.6,25.8c-1.6,3.3-4,7.3-5,13.9c-0.8,5.9-0.4,11.9,1.3,17.7c5.4,20.9,10.7,36,10.7,36c7.5,21,11.2,31.5,11.4,36.6
	c0.7,19.1-8,29.9-0.6,39.8c3.5,4.8,8.5,6.2,8.8,11.4c0.3,4.9-4,6.5-6.9,12.6c-4,8.3-0.5,14.4,0,26.5c0.5,12.3-3,13.8-4.4,27.1
	c-0.8,7.3-0.8,14.8-0.1,22.1l2.6-0.1C146.1,813.8,161.4,731,160,717.8z"/>
<polygon class="st8" points="416.1,828.1 333.6,828.1 360.4,692.1 389.2,692.1 "/>
<rect x="314" y="821.4" class="st8" width="117.8" height="14.1"/>
<polygon class="st8" points="416.1,828.1 333.6,828.1 360.4,692.1 389.2,692.1 "/>
<polygon class="st1" points="349,749.7 400.6,749.7 396.4,728.4 353.3,728.4 "/>
<polygon class="st1" points="339.2,799.6 410.5,799.6 406.3,778.3 343.4,778.3 "/>
<path d="M1301.5,807.9c0,0-32.3,17.8-43,17.9s-2.8,4.7,8.8,5.8c9.2,0.9,27.5-1.8,38.2-3.8c0.8-0.2,3.4-2.8,3.4-2.8l0.7,2.5
	c1,0.2,5.6-0.5,5.6-0.5c0.4-5.4-2.3-19.2-2.3-19.2L1301.5,807.9z"/>
<polygon class="st10" points="1301.5,807.9 1302,799.3 1313.4,799.8 1313,807.8 "/>
<path class="st13" d="M1301.1,549l38.3,6.5c0,0-11.7,102.3-23.7,142.1c0,0,7.9,68.5-0.6,105.6l-15.1,0.7c0,0-12.9-87.6-16.4-102.4
	C1279.3,683.8,1284.6,640.9,1301.1,549z"/>
<polygon class="st15" points="1296.6,795.3 1297.8,805.2 1316.7,804.8 1317.8,795.8 "/>
<path d="M1346.7,811.4c0,0-32.3,17.8-43,17.9s-2.8,4.7,8.8,5.8c9.2,0.8,27.5-1.8,38.2-3.8c0.8-0.2,3.4-2.8,3.4-2.8l0.7,2.5
	c1,0.2,5.5-0.4,5.5-0.4c0.4-5.4-2.3-19.2-2.3-19.2L1346.7,811.4z"/>
<polygon class="st10" points="1346.7,811.4 1347.1,802.8 1358.6,803.3 1358.2,811.3 "/>
<path class="st13" d="M1319.7,555l40.6,31.6c0,0,13.3,19.7-7,112.2c0,0,17.7,50.9,6.4,107.7l-15,2.3c0,0-18.1-94.2-23.1-108.6
	C1315.5,682.9,1310.7,635.1,1319.7,555z"/>
<polygon class="st15" points="1340.8,799.6 1342.8,809.4 1361.6,807.4 1361.9,798.5 "/>
<polygon class="st13" points="1316.8,586 1294.7,585.4 1291.2,606.5 1323.1,661.2 "/>
<path class="st9" d="M1302.1,830.9"/>
<path class="st3" d="M1340.2,472c0,0-15-13.6-33.4,13.8s-30.3,40.2-30.3,40.2l-69.6-38.4l-7.3,14.8c0,0,62.7,71.8,82.7,66.9
	S1385.2,476.6,1340.2,472z"/>
<path class="st16" d="M1200,502.9c0,0-33.7-26-17.7-21.4c7.3,2.1,13.7,7.6,16.3,5.3s-2.8-4.3-3.8-9.3c-0.8-4.5,15,12.4,15,12.4
	L1200,502.9z"/>
<g class="st17">
	<polygon points="1223.6,510 1252.5,537 1219.8,521.7 	"/>
</g>
<g class="st17">
	<polygon points="1274.2,552.3 1309.1,520.8 1309.1,529.1 1291.7,557 	"/>
</g>
<polygon class="st12" points="1195.7,502.4 1202.9,507.8 1216.2,491.6 1209,486.2 "/>
<path class="st3" d="M1325.7,461c11.6-4.3,44.6-7.1,49.7,21.1c4.6,25.7-5.2,48.1-9,66.3c-2.7,13-4.2,32.6-4.2,32.6
	s-21.6,25.5-61.8,14.1l2.6-43.7l2.8-24.2c-2.2-27.5-1.6-30.8,3.3-44.7c2-5.8,9.5-18.2,15-20.9C1324.6,461.5,1325.2,461.3,1325.7,461
	z"/>
<path class="st13" d="M1308,505.9l-3.4-2.6c0-17.6,7.2-41.8,35.5-44h0.9C1304.6,466.4,1308,505.5,1308,505.9z"/>
<path class="st16" d="M1336.1,415.4l20.9-0.1l-2.5,43.6c0.1,1.4-0.5,2.7-1.5,3.6c-8.6,6.1-15.8,3.2-15.8,3.2
	c-7.1-1.7-1.9-4.9-0.9-12.8L1336.1,415.4z"/>
<path class="st16" d="M1333.4,405.6c-10.1,12.7-11.3,24-11,35.6c0.4,14.8,20.1,14.9,32.6,7.2c10.8-6.5,16.3-19.3,13.6-31.6
	C1365.1,401.1,1344.4,391.8,1333.4,405.6z"/>
<g class="st17">
	<polygon points="1335.2,457.1 1347.1,452.3 1336.1,453.5 	"/>
</g>
<path class="st16" d="M1326.7,419.6c-3.2,2.7-6.1,5.7-8.6,9c1.2,2.3,3.1,4.1,5.6,5L1326.7,419.6z"/>
<path class="st14" d="M1370.9,414.4c-0.8-20.1-35.8-19.9-40-16.6c-8.1,6.4-1.6,13.5-1.6,13.5l1.7-1.3c0.3-0.2,0.7-0.3,1-0.4
	c5.2,0.8,23.2,4.5,17.7,18.7c-1.4,3.6,1.7,5.2,5.3,5.4c0.4,4.5,0.2,9.1-0.4,13.6C1354.1,450.6,1372.1,447.2,1370.9,414.4z"/>
<path class="st13" d="M1149.2,469.4l4.6-5.1l0,0l71.2,63l0,0l-5,5.6l0,0l-70.8-62.6C1149,470,1149,469.7,1149.2,469.4z"/>
<path class="st1" d="M1222,507c2,1.8,3.2,4.4,3.2,7.1l-0.1,13.2l-71.2-63l20.5,3.2c2.4,0.4,4.6,1.4,6.5,3L1222,507z"/>
<path class="st16" d="M1343.2,436.5c1.6,2.4,5.8,2.5,9.2,0.2s5-6.2,3.4-8.6s-5.8-2.5-9.3-0.2S1341.6,434,1343.2,436.5z"/>
<path class="st13" d="M1362.4,592.4c0,0,1.3-30.9,4-43.9c1.5-7.3,4-15.3,6.2-23.8c-26-2.4-50.9-13-68-21.9
	c-0.2,5.6,0.2,12.9,1.2,24.6l-5.3,24.2l-7.4,44.3C1333.2,607.2,1362.4,592.4,1362.4,592.4z"/>
<path class="st18" d="M1336.1,462.4"/>
<path class="st13" d="M1349.6,620.4l-13.6-3.7c17.5-64.4,26-124.7,18.6-131.7c-4.8-4.3-8-4.1-9.9-3.6c-10.2,2.8-20.1,25.2-23.3,35.5
	l-10.6-4.1c1.2-4,9.8-39.3,30.2-44.9c5.4-1.5,13.8-1.6,23,6.7C1382.2,491,1360,582,1349.6,620.4z"/>
<path class="st3" d="M1345.9,476.8c0,0-13.7,0-28.5,29.3s-22.6,37.2-22.6,37.2l-69.8-30.8l-12.1,15.8c0,0,74.7,63.7,92.2,53
	C1337.6,561.1,1391.1,475.8,1345.9,476.8z"/>
<path class="st16" d="M1212.8,528.3c0,0-16,1.3-19.7-8.2c-2.4-6-10.9-19.5-2.5-13.3c5.3,3.9,12.5,11.2,14.7,8.1s-8.9-4.1-6.1-10
	l18.7,10.5L1212.8,528.3z"/>
<polygon class="st12" points="1207.3,532.3 1215.3,536.4 1228.6,512.9 1220.6,508.8 "/>
<path class="st13" d="M1373.3,421.1l-43.8-22.2c6.3-12,21.1-16.6,33.1-10.4C1374.5,394.7,1379.2,409.2,1373.3,421.1"/>
<path class="st15" d="M1353.6,385.5c13.5,1.2,23.5,13.1,22.3,26.6c-0.3,3.1-1.1,6.2-2.6,9l-11.4-5.8
	C1366.5,404.6,1363.1,392.2,1353.6,385.5z"/>
<rect x="1344.3" y="379.6" transform="matrix(0.4283 -0.9036 0.9036 0.4283 401.7763 1451.2175)" class="st15" width="7" height="56.9"/>
<polygon class="st8" points="1256.4,828.1 1173.9,828.1 1200.8,692.1 1229.6,692.1 "/>
<rect x="1154.4" y="821.4" class="st8" width="117.8" height="14.1"/>
<polygon class="st8" points="1256.4,828.1 1173.9,828.1 1200.8,692.1 1229.6,692.1 "/>
<polygon class="st1" points="1189.4,749.7 1240.9,749.7 1236.7,728.4 1193.6,728.4 "/>
<polygon class="st1" points="1179.5,799.6 1250.8,799.6 1246.6,778.3 1183.8,778.3 "/>
<path class="st13" d="M639.2,855.7c1.7,0,3.2-1.2,3.5-2.9l62.5-304.8c0.2-2-1.3-3.7-3.3-3.9c-1.6-0.1-3.2,0.9-3.7,2.4l-62.5,304.7
	c-0.4,1.9,0.9,3.8,2.8,4.2C638.7,855.7,638.9,855.7,639.2,855.7z"/>
<path class="st13" d="M698.7,577.5h90.1c2-0.1,3.5-1.8,3.4-3.8c-0.1-1.8-1.6-3.3-3.4-3.4h-90.1c-2-0.1-3.7,1.4-3.8,3.4
	c-0.1,2,1.4,3.7,3.4,3.8C698.5,577.5,698.6,577.5,698.7,577.5z"/>
<path class="st13" d="M689.9,616.7h90.1c2-0.1,3.5-1.8,3.4-3.8c-0.1-1.8-1.6-3.3-3.4-3.4h-90.1c-2-0.1-3.7,1.4-3.8,3.4
	c-0.1,2,1.4,3.7,3.4,3.8C689.7,616.7,689.8,616.7,689.9,616.7z"/>
<path class="st13" d="M682.4,655.9h90.1c2,0,3.6-1.6,3.6-3.6c0-2-1.6-3.6-3.6-3.6h-90.1c-2,0-3.6,1.6-3.6,3.6
	C678.8,654.3,680.4,655.9,682.4,655.9z"/>
<path class="st13" d="M674.2,695.1h90.1c2,0,3.6-1.6,3.6-3.6c0-2-1.6-3.6-3.6-3.6h-90.1c-2,0-3.6,1.6-3.6,3.6
	C670.6,693.4,672.2,695.1,674.2,695.1L674.2,695.1z"/>
<path class="st13" d="M666.5,734.2h90.1c2,0.1,3.7-1.4,3.8-3.4c0.1-2-1.4-3.7-3.4-3.8c-0.1,0-0.3,0-0.4,0h-90.1
	c-2,0.1-3.5,1.8-3.4,3.8C663.2,732.7,664.7,734.2,666.5,734.2z"/>
<path class="st13" d="M658.9,773.5H749c2-0.1,3.5-1.8,3.4-3.8c-0.1-1.8-1.6-3.3-3.4-3.4h-90.1c-2-0.1-3.7,1.4-3.8,3.4
	c-0.1,2,1.4,3.7,3.4,3.8C658.6,773.5,658.8,773.5,658.9,773.5z"/>
<path class="st13" d="M651.1,812.7h90.1c2-0.1,3.5-1.8,3.4-3.8c-0.1-1.8-1.6-3.3-3.4-3.4h-90.1c-2-0.1-3.7,1.4-3.8,3.4
	c-0.1,2,1.4,3.7,3.4,3.8C650.8,812.7,651,812.7,651.1,812.7z"/>
<path class="st13" d="M735.7,855.7c1.7,0,3.2-1.2,3.5-2.9l62.5-304.8c0.3-2-1-3.8-3-4.1c-1.9-0.3-3.7,0.9-4.1,2.7l-62.5,304.7
	c-0.4,1.9,0.8,3.8,2.8,4.2c0,0,0,0,0,0C735.2,855.7,735.4,855.7,735.7,855.7z"/>
<line class="st19" x1="1032.7" y1="352.5" x2="1051.2" y2="399.5"/>
<polyline class="st20" points="984.1,341.3 990.2,351.8 1031.9,350.4 1062.6,323.1 1058,307.7 "/>
<line class="st20" x1="1061.4" y1="304.8" x2="980.1" y2="340.8"/>
<path class="st15" d="M1050.1,326l-47.6,19.9c-6.9,2.9-14.8-0.4-17.7-7.2l0,0c-2.9-6.9,0.4-14.8,7.2-17.7l47.5-20
	c6.9-2.9,14.8,0.4,17.7,7.2l0,0C1060.2,315.2,1057,323.1,1050.1,326z"/>
<path class="st13" d="M999.8,340.7l47.5-19.9c6.1-2.6,9.5-9.3,7.8-15.8c-3.8-4.6-10.1-6.1-15.6-3.9l-47.5,20
	c-6.1,2.6-9.5,9.3-7.8,15.8C988,341.4,994.4,343,999.8,340.7z"/>
<polygon class="st13" points="989.4,776.5 927.7,776.5 916.3,692.1 1000.8,692.1 "/>
<path class="st21" d="M921.8,694.2c0.3-20.3,17-36.4,37.3-36.1c19.8,0.3,35.8,16.3,36.1,36.1"/>
<path class="st3" d="M983.5,694.9c0.6-0.8,0.8-1.8,0.5-2.8h-50.8c-1,5.8,1.4,12,3.5,12.3c2.6,0.3,4.3-8.6,7.5-8.4
	c2.6,0.2,6.3,6.2,3.7,20.6c-2.2,12.7,5.5,15.4,6.3,15.2c7.9-1.5,2.8-30.5,9.8-32.5c2.7-0.8,5.3,3.1,8.8,1.6c2.9-1.2,3.1-4.7,6.6-5.7
	C981.5,694.7,982.7,695.7,983.5,694.9z"/>
<path class="st3" d="M1036.9,616.2l39.7,7.1l29.9-15.5c0,0-3-21.1-2.8-27c0.4-14.2,7.2-46.1-2.8-68.8c-7.4-16.7-21.2-9.1-38.7-3.6
	l-19.7,2.2c0,0-31.5-19-9.5,68.7C1035.6,589.2,1036.9,616.2,1036.9,616.2z"/>
<path class="st10" d="M1053.3,447.5c-7.8,8-11.1,20.4-10.9,31.9c0.2,12.5,19.5,13.2,30.1,6.5c9.3-5.9,15.5-18.4,13.1-28.6
	C1082.5,444.1,1063.8,436.9,1053.3,447.5z"/>
<path class="st10" d="M1049.3,453.3c0,0-4.8,5.6-8.8,6.8c0.7,2.2,2.2,4,4.2,5.2L1049.3,453.3z"/>
<path class="st3" d="M1025.3,517.9l-10.1,38.6l-6.3,20l-38.6,67.9l12,8.1L1031,584l7.5-21.2l29-56.3c2.3-6.6-11.8-6.4-18.4-8.7
	S1030,504,1025.3,517.9z"/>
<path class="st10" d="M971.9,641.4c0,0-14.6,16.1-4.6,15c7-0.8,1.9-1.8,1.9-1.8s-10,8.7-5.6,8.6s13.7,3.7,15.9-2.3
	c2.7-7.3,4-11.5,4-11.5L971.9,641.4z"/>
<rect x="975" y="633.1" transform="matrix(0.5629 -0.8265 0.8265 0.5629 -103.7192 1090.8969)" class="st12" width="9.3" height="20.8"/>
<polygon class="st3" points="1070.3,470.7 1044.1,397.1 1057.3,391.3 1093.5,467.1 1097.1,489.3 1073.1,491.4 "/>
<path class="st22" d="M1093.1,542.7c-6.9,1.1-13.4-3.5-14.6-10.5l-5.5-40.8l24.1-2.1l7.7,35.7C1105.9,531.9,1100,541.5,1093.1,542.7
	z"/>
<path class="st10" d="M1048.1,398.4c0,0-15-16-8.7-19.1l4.7,7.6c0,0-5.5-19.6-1.2-18.7s13.7,6.4,12.7,12.7
	c-1.2,7.6-1.8,13.9-1.8,13.9L1048.1,398.4z"/>
<rect x="1043.1" y="393" transform="matrix(0.9286 -0.371 0.371 0.9286 -72.4385 418.7888)" class="st12" width="18.1" height="9.3"/>
<polygon class="st10" points="1050.3,479.9 1052.2,521.2 1074.8,514 1064.1,476.2 "/>
<path class="st9" d="M1057.6,597.7c1.2-47.4-4.9-84.9-8.7-100c-2.8-0.9-6.5,0.1-10.2,2.5c3.6,14.2,9.6,48.3,8.4,97.3L1057.6,597.7z"
	/>
<path class="st13" d="M1113.1,642.7c5-36-8.8-60.3-8.8-60.3c-23.3,12.9-69.1,10-69.1,10l-6.5,60.8l-3.6,67.3c0,0,1.5,37.7,17.4,87.7
	l17.9-2.9c0,0,3.3-35.5-2.8-86.2c0,0,9-36.2,13.9-54.9c0.3-1.2,5.6-3.2,5.9-4.2C1077.4,660,1104.1,658.5,1113.1,642.7z"/>
<path class="st13" d="M1082.8,807.6l15.7-2.3c0,0,7.3-36.7,0-85.2c0,0,12.4-27.5,13.5-71.1c0.4-2.2,0.7-4.2,1-6.3
	c-9,15.8-35.7,17.2-35.7,17.2l-11.5,63.6C1065.8,723.5,1070.6,754,1082.8,807.6z"/>
<path class="st15" d="M1086.2,658.7c-2.9,0.6-5.9,1-8.9,1.3l-11.5,63.6c0,0,4.7,30.2,16.8,83.2c1.8-1.1,3.2-2.6,4.1-4.5
	c1.6-3.7-0.8-6-3.8-17.7c-1.8-7.3-0.9-6.2-3.8-20.8c-2.2-11.2-3.3-16.8-4.4-19.6c-3-7.7-6-10.9-4.4-15.2c1.5-4,5.6-4.7,5.7-8.2
	c0-3-2.9-4.2-4.4-7c-3.6-6.6,3.6-17,5.7-20.2C1081.6,687,1085.8,676.3,1086.2,658.7z"/>
<polygon class="st10" points="1042.4,808.2 1045.8,819.2 1058.3,818.3 1058.3,805.8 "/>
<path d="M1023.1,835.7c0,0,0.1-7.4,14.1-9.7c7.4-1.2,3.6-6.7,3.6-6.7l13.7-4.2l-13.1,23L1023.1,835.7z"/>
<path class="st3" d="M1056.7,814.9c-9.2,0-8.6,7.9-10,12.9l0,0c0,0-6.5,9.4-20.5,8.3c3.3,0.5,8.7,1.2,12.9,1.8
	c4.3,0.6,8.6,0.3,12.7-0.8l7.8-2.1c4.5-2.5,9.4-19.5-2.2-20L1056.7,814.9z"/>
<path class="st7" d="M1024,835.8c0.8,0.1,1.5,0.2,2.3,0.2C1023.4,835.7,1022.1,835.5,1024,835.8z"/>
<polygon class="st10" points="1082.8,807.6 1086.1,818.7 1098.6,817.8 1098.5,805.3 "/>
<path d="M1063.3,835.2c0,0,0.2-7.4,14.1-9.7c7.4-1.2,3.6-6.7,3.6-6.7l13.7-4.2l-13.1,23L1063.3,835.2z"/>
<path class="st3" d="M1096.9,814.4c-9.3,0-8.6,7.9-10,12.9l0,0c0,0-6.5,9.4-20.5,8.3c3.3,0.5,8.7,1.2,12.9,1.8
	c4.3,0.6,8.6,0.3,12.7-0.8l7.8-2.1c4.5-2.5,9.4-19.5-2.2-20L1096.9,814.4z"/>
<path class="st7" d="M1064.2,835.3c0.8,0.1,1.5,0.2,2.3,0.2C1063.7,835.2,1062.3,835,1064.2,835.3z"/>
<rect x="1038.7" y="800.8" transform="matrix(0.9941 -0.1083 0.1083 0.9941 -81.117 118.5529)" class="st15" width="23.4" height="9.8"/>
<rect x="1079" y="798.5" transform="matrix(0.9941 -0.1083 0.1083 0.9941 -80.6277 122.908)" class="st15" width="23.4" height="9.8"/>
<path class="st1" d="M1049.9,495.1l-0.4,6.9c0,0,9.1,3.2,14.9,1.5c3.5-1.1,6.3-3.7,7.7-7l-1.9-5.1
	C1070.2,491.4,1065.1,499.5,1049.9,495.1z"/>
<path class="st14" d="M1054.4,437.8c0,0-13.4,12.1,3,24.5c0,0,6.1,4.4-2.9,15.2c-1.8,2.2-1.8,5.4,0,7.6c5.5,6.4,17.4,15.8,30.1-4
	c5.9-9.2,6.7-20,1.8-26.3c-4.7-6.1-9-9.5-16.3-12.1C1063.5,440.4,1060,441.2,1054.4,437.8z"/>
<path class="st14" d="M1054.4,477.5c-15.8,13.7-14.9,32.5-14.9,35.4c0.1,15.1,15.3,27.2,15.6,30.8c0.9,9.7-14.7,30.2-12.4,40.3
	c3.2,14.7,29.3,20,55,9.3c29.3-12.2,33.1-51.2,6.9-78c-11.6-11.8-7.8-35.1-10-52c-1.3-10.2-4.3,0.6-9.3-7
	c-7.4-11.3-25.5-15.2-28.3-11.7c-2.6,3.2,8.9,11.6,6.4,21.5C1062.1,471.1,1060.5,472.2,1054.4,477.5z"/>
<path class="st10" d="M1062.2,466.1c1,2-0.1,4.7-2.7,6s-5.4,0.7-6.4-1.3s0.1-4.7,2.7-6S1061.2,464,1062.2,466.1z"/>
<path class="st13" d="M1093.1,470.7l-38.5-30.4c8.4-10.6,23.8-12.4,34.5-4C1099.7,444.6,1101.5,460,1093.1,470.7"/>
<path class="st15" d="M1080.8,431.9c13,3.8,20.4,17.5,16.6,30.5c-0.9,3-2.3,5.8-4.3,8.3l-10-7.9
	C1089.8,453.2,1088.8,440.3,1080.8,431.9z"/>
<rect x="1067.3" y="424.6" transform="matrix(0.598 -0.8015 0.8015 0.598 67.3125 1040.2921)" class="st15" width="7" height="56.9"/>
</svg>
